<?xml version="1.0" encoding="UTF-8" standalone="no"?>
<svg
   version="1.0"
   width="1077.453104pt"
   height="219.968726pt"
   viewBox="-20.720252 -4.230168 1077.453104 219.968726"
   preserveAspectRatio="xMidYMid meet"
   id="svg8"
   sodipodi:docname="huntington_applied-logo-primary-1920x1080.svg"
   xmlns:inkscape="http://www.inkscape.org/namespaces/inkscape"
   xmlns:sodipodi="http://sodipodi.sourceforge.net/DTD/sodipodi-0.dtd"
   xmlns="http://www.w3.org/2000/svg"
   xmlns:svg="http://www.w3.org/2000/svg">
  <defs
     id="defs12" />
  <sodipodi:namedview
     id="namedview10"
     pagecolor="#ffffff"
     bordercolor="#666666"
     borderopacity="1.0"
     inkscape:pageshadow="2"
     inkscape:pageopacity="0.0"
     inkscape:pagecheckerboard="0"
     inkscape:document-units="pt"
     showgrid="false" />
  <metadata
     id="metadata2">
Created by potrace 1.16, written by Peter Selinger 2001-2019
</metadata>
  <g
     transform="matrix(0.1,0,0,-0.1,-124.48747,335.8)"
     fill="#a85b43"
     stroke="none"
     id="g6">
    <path
       d="m 2368,3224 c -101,-74 -227,-167 -281,-207 -55,-39 -145,-105 -200,-145 -164,-118 -177,-132 -177,-189 0,-100 56,-224 124,-276 122,-93 378,-109 539,-33 31,14 82,54 124,96 l 73,72 65,-60 c 117,-107 216,-144 385,-144 170,0 287,35 344,102 35,42 69,157 61,207 -3,21 -18,54 -33,73 -27,34 -276,225 -659,505 l -182,133 z m 6460,121 c -2,-2 -18,-7 -36,-10 -96,-17 -205,-105 -254,-205 -50,-104 -66,-263 -38,-382 27,-116 103,-224 189,-267 134,-69 318,-55 414,30 l 47,41 1,-31 c 1,-17 3,-35 4,-41 1,-5 3,-14 4,-20 1,-11 101,-14 102,-2 0,4 1,112 2,240 l 2,232 -30,1 c -28,1 -308,0 -330,-1 -6,0 -11,-24 -10,-55 v -55 h 117 118 v -37 c 0,-143 -89,-233 -230,-233 -170,0 -273,131 -272,344 1,179 72,300 194,334 49,13 146,7 193,-13 51,-21 78,-47 100,-96 10,-21 21,-40 24,-40 27,-6 131,-3 131,3 0,26 -45,120 -73,150 -71,77 -150,109 -278,114 -48,1 -89,1 -91,-1 z m 1503,-38 c -133,-19 -243,-109 -289,-237 -26,-72 -34,-118 -33,-206 1,-263 149,-425 388,-426 91,0 151,14 212,49 127,74 194,213 190,397 -3,156 -37,247 -124,331 -80,79 -206,112 -344,92 z m 171,-129 c 51,-23 83,-58 114,-125 51,-108 49,-276 -6,-383 -55,-107 -190,-149 -305,-94 -98,46 -144,143 -149,313 -4,140 63,260 166,298 47,17 131,13 180,-9 z M 4210,2875 v -425 h 70 70 v 185 185 h 193 192 v -185 l -1,-185 h 71 70 v 423 422 l -70,3 -71,3 1,-176 c 0,-110 -3,-179 -10,-184 -5,-4 -91,-7 -190,-7 l -180,1 -3,183 -2,182 h -70 -70 z m 830,135 c 1,-322 8,-371 62,-451 53,-78 140,-120 250,-121 115,-1 201,32 261,103 67,78 71,98 75,447 l 3,313 -68,-3 -68,-3 -2,-280 c -2,-289 -9,-347 -44,-397 -57,-80 -198,-87 -269,-15 -25,26 -62,111 -59,135 1,4 1,132 0,285 l -1,277 h -70 -70 z m 819,278 c -1,-16 -1,-797 0,-820 1,-15 11,-18 66,-18 60,0 65,2 66,23 0,12 0,157 0,322 l -1,300 20,-25 c 11,-14 20,-28 20,-31 0,-4 70,-130 155,-280 86,-151 159,-281 164,-289 9,-17 160,-27 170,-11 5,7 6,791 2,834 -1,4 -30,7 -66,7 -64,0 -65,0 -66,-27 0,-16 0,-161 0,-323 0,-292 0,-295 -19,-270 -11,14 -20,28 -20,31 0,4 -28,55 -63,115 -35,60 -77,134 -94,164 -16,30 -40,72 -52,93 -27,47 -50,88 -90,160 l -33,57 h -79 c -56,0 -79,-4 -80,-12 z m 765,-44 1,-56 h 120 l 120,-1 v -368 -369 h 70 70 v 348 c 0,191 1,357 3,369 4,20 9,21 120,21 h 117 l 2,56 1,56 h -313 -313 z m 723,-231 c 1,-159 2,-350 2,-425 l 1,-138 h 68 67 v 425 425 h -70 -70 z m 323,-138 v -425 h 68 67 v 311 c 0,171 3,313 6,315 3,2 87,-138 185,-311 l 178,-315 h 81 80 v 425 425 h -67 -68 l -2,-321 -3,-321 -181,319 -181,318 -81,3 -82,3 z m 1689,423 c -1,-2 -3,-27 -4,-55 l -2,-53 61,-1 c 34,0 88,-2 121,-2 l 60,-2 3,-367 2,-368 h 69 69 v 343 c 0,188 1,354 1,368 l 1,27 h 108 c 59,1 113,1 120,1 8,1 12,19 12,56 v 55 h -310 c -170,0 -311,-1 -311,-2 z m 1581,-423 v -425 h 65 c 55,0 65,3 66,18 0,9 1,153 1,320 0,256 2,301 14,291 8,-6 14,-15 14,-19 0,-3 32,-63 71,-131 39,-68 79,-137 88,-154 9,-16 54,-96 100,-177 l 84,-148 h 81 81 v 425 425 h -67 -68 v -322 c 0,-187 -4,-318 -9,-312 -5,5 -19,29 -33,54 -13,25 -31,56 -39,70 -9,14 -78,134 -153,268 l -137,242 h -80 -79 z m -8522,-863 -156,-189 135,-234 c 75,-129 149,-259 166,-289 16,-30 31,-56 32,-57 1,-2 20,32 43,75 211,399 262,497 262,504 0,6 -218,261 -300,351 l -25,27 z m -1104,121 c -86,-15 -93,-227 -14,-405 29,-66 100,-159 147,-191 94,-65 125,-70 386,-72 131,0 240,2 242,5 5,9 -96,248 -127,301 -73,123 -289,284 -463,344 -49,17 -130,25 -171,18 z m 2398,-9 c -163,-42 -406,-213 -495,-347 -64,-96 -146,-285 -133,-306 2,-3 118,-6 258,-6 h 253 l 65,31 c 81,39 128,82 175,159 51,85 77,174 81,281 4,104 -9,159 -44,182 -32,21 -95,23 -160,6 z m 818,-48 c -4,-12 -76,-199 -160,-416 -84,-217 -154,-400 -156,-405 -3,-7 24,-10 71,-10 h 75 l 26,75 c 15,41 33,89 40,106 l 12,31 h 165 165 l 27,-76 c 50,-145 42,-136 124,-136 39,-1 71,2 71,6 0,5 -4,18 -10,31 -5,13 -77,198 -160,412 -82,214 -152,391 -155,394 -3,3 -33,6 -66,7 -53,1 -62,-1 -69,-19 z m 125,-296 c 25,-74 52,-152 60,-172 l 13,-38 -42,-1 c -103,-2 -198,0 -202,4 -3,3 17,69 45,148 62,181 71,203 75,198 2,-2 25,-65 51,-139 z m 435,-109 v -426 l 70,-1 h 70 v 158 c 0,143 2,158 18,159 9,0 53,2 97,3 127,5 187,28 248,95 42,46 57,93 57,175 0,84 -18,135 -66,182 -64,64 -115,77 -321,79 l -173,1 z m 342,295 c 48,-23 78,-83 74,-147 -8,-105 -63,-147 -198,-148 l -78,-1 v 153 c 0,85 2,156 5,158 12,13 163,1 197,-15 z m 337,105 c -1,-31 -1,-631 0,-746 l 1,-81 63,2 c 34,1 64,2 67,3 3,0 5,69 5,152 0,83 3,153 8,156 4,2 49,6 100,7 198,5 299,82 314,239 7,78 -15,159 -56,205 -16,17 -55,44 -86,58 -55,26 -67,27 -237,29 l -178,1 z m 342,-107 c 48,-29 73,-76 72,-141 -1,-59 -17,-90 -66,-127 -22,-16 -43,-20 -119,-20 l -92,-1 -1,145 c -1,80 0,150 2,156 7,19 166,10 204,-12 z m 349,129 c -13,-3 -15,-56 -14,-421 1,-229 2,-419 3,-422 0,-3 111,-5 246,-5 h 245 v 56 56 l -172,1 c -95,0 -176,1 -179,1 -4,1 -7,160 -7,354 0,193 -1,359 -1,367 -1,11 -14,15 -54,15 -28,0 -59,-1 -67,-2 z m 584,-7 c -2,-6 -3,-198 -2,-426 l 3,-415 h 65 65 l 1,425 2,425 -65,1 c -37,0 -67,-4 -69,-10 z m 317,4 c -9,-7 -9,-833 0,-840 4,-3 119,-5 256,-5 h 248 v 55 55 l -172,1 c -95,1 -179,4 -187,7 -13,5 -15,27 -14,130 l 1,123 171,1 h 171 l 3,56 3,57 h -174 -174 l -1,125 v 125 l 26,1 c 15,0 97,1 182,2 l 155,2 v 53 c 1,28 -4,53 -10,53 -35,4 -478,3 -484,-1 z m 658,-9 c -4,-92 -1,-820 4,-827 7,-12 291,-11 357,1 206,36 326,204 316,444 -6,145 -51,242 -146,315 -83,63 -147,78 -352,80 -156,2 -178,1 -179,-13 z m 384,-125 c 101,-50 153,-161 145,-314 -5,-101 -28,-160 -83,-215 -51,-51 -110,-70 -218,-71 l -92,-1 -1,310 c 0,171 1,313 3,317 2,4 46,6 98,4 77,-3 105,-9 148,-30 z"
       id="path4" />
  </g>
</svg>
