<?xml version="1.0" encoding="UTF-8" standalone="no"?>
<svg
   id="Layer_1"
   version="1.1"
   viewBox="-60.643892 -26.6838 1156.682384 264.35761"
   sodipodi:docname="fasci-logo-dark.svg"
   width="1112.1946"
   height="254.19"
   xmlns:inkscape="http://www.inkscape.org/namespaces/inkscape"
   xmlns:sodipodi="http://sodipodi.sourceforge.net/DTD/sodipodi-0.dtd"
   xmlns="http://www.w3.org/2000/svg"
   xmlns:svg="http://www.w3.org/2000/svg">
  <defs
     id="defs19" />
  <sodipodi:namedview
     id="namedview17"
     pagecolor="#ffffff"
     bordercolor="#666666"
     borderopacity="1.0"
     inkscape:pageshadow="2"
     inkscape:pageopacity="0.0"
     inkscape:pagecheckerboard="0"
     showgrid="false" />
  <!-- Generator: Adobe Illustrator 29.7.1, SVG Export Plug-In . SVG Version: 2.1.1 Build 8)  -->
  <g
     id="g12"
     transform="translate(-442.30541,-481.99)">
    <path
       d="m 849.43,496.58 v -32.47 h -142.3 v 246.76 h 39.34 V 603.45 h 93.88 v -31.91 h -93.88 v -74.95 h 102.96 z"
       id="path2" />
    <path
       d="M 970.23,464.11 H 933.68 L 838.7,710.87 H 881 l 22.26,-61.78 h 97.4 l 22.26,61.78 h 42.3 l -95,-246.76 z m -55.84,153.62 37.28,-106.5 8.17,21.34 c 9.83,28.38 19.48,56.76 29.69,85.16 z"
       id="path4" />
    <path
       d="m 1183.41,578.58 -30.05,-13.36 c -23.75,-10.02 -33.57,-19.11 -33.4,-38.03 0,-18.36 15.96,-32.47 43.97,-32.47 20.42,0 42.68,6.69 55.85,12.44 l 8.35,-31.36 c -13.36,-6.5 -35.07,-15.4 -65.31,-15.4 -44.9,0 -83.48,26.72 -83.48,69.2 0,34.33 18.74,53.62 50.28,67.17 l 28.01,12.06 c 28.57,12.42 38.78,22.07 38.78,40.26 0,20.04 -18,31.34 -48.61,31.34 -24.68,0 -48.24,-8.71 -60.68,-15.21 l -9.65,31.55 c 12.99,8.9 40.82,17.81 70.69,17.81 56.22,0 89.42,-24.67 89.42,-67.72 -0.19,-31.53 -17.81,-51.95 -54.18,-68.27 z"
       id="path6" />
    <path
       d="m 1436.48,670.79 c -13.17,5.94 -31.53,10.19 -49.34,10.19 -53.43,0 -84.23,-37.47 -84.23,-95.91 0,-58.44 31.9,-91.1 81.64,-91.1 17.44,0 33.02,4.08 46.57,9.27 l 9.08,-29.86 c -13.54,-7.24 -35.61,-12.99 -56.2,-12.99 -75.89,0 -123.01,51.95 -123.01,127.65 0,75.7 46.57,126.53 124.86,126.53 21.9,0 45.45,-5.94 60.66,-14.29 l -10.02,-29.5 z"
       id="path8" />
    <path
       d="m 1476.76,464.11 v 246.76 h 39.34 V 464.11 Z"
       id="path10" />
  </g>
  <path
     d="m 166.23459,101.92 c 55.96,-27.58 46.23,-123.27 46.23,-123.27 -94.09,-4.06 -122.469999,44.6 -122.469999,44.6 -38.93,-51.09 -122.45,-39.73 -122.45,-39.73 -17.03,75.42 38.9300003,124.89 38.9300003,124.89 -60.8300003,41.36 -42.1800003,119.22 -42.1800003,119.22 89.21,13.78 120.03,-43.79 120.03,-43.79 51.899999,60.01 125.699999,41.36 125.699999,41.36 9.73,-90.02 -43.79,-123.27 -43.79,-123.27 z"
     id="path14" />
</svg>
