<?xml version="1.0" encoding="UTF-8" standalone="no"?>
<svg
   id="Layer_1"
   version="1.1"
   viewBox="-96.050199 -46.719 921.138369 138.05999"
   sodipodi:docname="document_scanner-logo-primary.svg"
   width="885.71002"
   height="132.75"
   xmlns:inkscape="http://www.inkscape.org/namespaces/inkscape"
   xmlns:sodipodi="http://sodipodi.sourceforge.net/DTD/sodipodi-0.dtd"
   xmlns="http://www.w3.org/2000/svg"
   xmlns:svg="http://www.w3.org/2000/svg">
  <defs
     id="defs89" />
  <sodipodi:namedview
     id="namedview87"
     pagecolor="#ffffff"
     bordercolor="#666666"
     borderopacity="1.0"
     inkscape:pageshadow="2"
     inkscape:pageopacity="0.0"
     inkscape:pagecheckerboard="0"
     showgrid="false" />
  <!-- Generator: Adobe Illustrator 29.7.1, SVG Export Plug-In . SVG Version: 2.1.1 Build 8)  -->
  <g
     id="g16"
     transform="translate(-595.476,-517.684)">
    <path
       d="m 644.52,579.08 c 6.25,3.26 18.1,7.65 30.5,7.65 15.39,0 24.44,-5.69 24.44,-15.76 0,-9.14 -5.13,-13.99 -19.49,-20.24 l -14.08,-6.06 c -15.86,-6.81 -25.28,-16.51 -25.28,-33.77 0,-21.36 19.4,-34.79 41.97,-34.79 15.2,0 26.12,4.48 32.83,7.74 l -4.2,15.76 c -6.62,-2.89 -17.82,-6.25 -28.08,-6.25 -14.08,0 -22.11,7.09 -22.11,16.32 -0.09,9.51 4.85,14.08 16.79,19.12 l 15.11,6.72 c 18.28,8.21 27.14,18.47 27.24,34.33 0,21.64 -16.7,34.05 -44.96,34.05 -15.02,0 -29.01,-4.48 -35.54,-8.95 l 4.85,-15.86 z"
       id="path2" />
    <path
       d="m 797.58,476.11 c 10.35,0 21.45,2.89 28.26,6.53 l -4.57,15.02 c -6.81,-2.61 -14.64,-4.66 -23.41,-4.66 -25,0 -41.04,16.6 -41.04,45.8 0,29.2 15.48,48.22 42.35,48.22 8.95,0 18.19,-2.15 24.81,-5.13 l 5.04,14.83 c -7.65,4.2 -19.49,7.18 -30.5,7.18 -39.36,0 -62.77,-24.9 -62.77,-63.61 0,-38.71 23.69,-64.17 61.84,-64.17 z"
       id="path4" />
    <path
       d="m 916.79,570.97 h -48.97 l -11.19,31.06 h -21.27 l 47.76,-124.06 h 18.37 l 47.76,124.06 H 927.98 Z M 873.42,555.2 h 37.78 c -5.13,-14.27 -9.98,-28.54 -14.92,-42.81 l -4.1,-10.73 -18.75,53.54 z"
       id="path6" />
    <path
       d="m 985.16,506.05 v 95.98 H 965.85 V 477.97 h 22.95 l 54.47,95.98 v -95.98 h 19.4 v 124.06 h -22.95 l -54.57,-95.98 z"
       id="path8" />
    <path
       d="m 1111.27,506.05 v 95.98 h -19.31 V 477.97 h 22.95 l 54.47,95.98 v -95.98 h 19.4 v 124.06 h -22.95 l -54.57,-95.98 z"
       id="path10" />
    <path
       d="m 1289.9,494.29 h -53.07 v 37.22 h 50.93 v 16.04 h -50.93 v 38.15 h 54.94 v 16.32 h -74.71 V 477.96 h 72.85 v 16.32 z"
       id="path12" />
    <path
       d="M 1315.92,602.03 V 477.97 h 38.8 c 27.98,0 44.49,13.24 44.49,37.31 0,15.76 -11.75,29.29 -24.62,34.23 l 28.26,52.51 h -21.64 l -25.09,-48.5 h -20.43 v 48.5 h -19.77 z m 19.78,-63.9 h 27.98 c 8.49,-2.8 14.74,-11.38 14.74,-21.64 0,-14.46 -8.77,-22.67 -23.97,-22.67 h -18.75 z"
       id="path14" />
  </g>
  <g
     id="g84"
     transform="translate(-595.476,-517.684)">
    <g
       id="g22">
      <path
         d="m 548.44,514.45 c -2.19,-0.14 -3.86,-2.05 -3.72,-4.24 l 2.09,-31.76 c 0.14,-2.09 1.88,-3.73 3.97,-3.73 0.09,0 0.18,0 0.27,0 1.06,0.07 2.03,0.55 2.73,1.35 0.7,0.8 1.05,1.83 0.98,2.89 l -2.09,31.76 c -0.12,1.83 -1.46,3.33 -3.27,3.66 -0.23,0.04 -0.47,0.06 -0.71,0.06 -0.09,0 -0.17,0 -0.26,0 z"
         id="path18" />
      <path
         d="m 549.03,512.26 c -0.14,0.03 -0.29,0.04 -0.45,0.03 -1,-0.07 -1.77,-0.93 -1.7,-1.94 l 2.09,-31.76 c 0.07,-1.01 0.94,-1.77 1.94,-1.7 1,0.07 1.77,0.93 1.7,1.94 l -2.09,31.76 c -0.06,0.85 -0.69,1.53 -1.49,1.67 z"
         id="path20" />
    </g>
    <g
       id="g28">
      <path
         d="m 559.38,516.59 c -0.77,0 -1.51,-0.22 -2.16,-0.64 -0.89,-0.58 -1.51,-1.47 -1.74,-2.51 -0.23,-1.04 -0.03,-2.11 0.55,-3 l 18.65,-28.94 c 0.74,-1.14 1.99,-1.83 3.35,-1.83 0.77,0 1.51,0.22 2.16,0.64 0.89,0.58 1.51,1.47 1.74,2.51 0.22,1.04 0.03,2.11 -0.55,3 l -18.65,28.94 c -0.74,1.14 -1.99,1.83 -3.35,1.83 z"
         id="path24" />
      <path
         d="m 559.38,514.42 c -0.34,0 -0.68,-0.09 -0.99,-0.29 -0.85,-0.55 -1.09,-1.67 -0.54,-2.52 l 18.65,-28.94 c 0.55,-0.85 1.67,-1.09 2.52,-0.54 0.85,0.55 1.09,1.67 0.54,2.52 l -18.65,28.94 c -0.35,0.54 -0.94,0.84 -1.53,0.84 z"
         id="path26" />
    </g>
    <g
       id="g34">
      <path
         d="m 567.42,522.37 c -1.18,0 -2.29,-0.52 -3.05,-1.41 -0.69,-0.81 -1.02,-1.84 -0.93,-2.91 0.09,-1.06 0.59,-2.02 1.4,-2.71 l 27.01,-22.83 c 0.72,-0.61 1.63,-0.94 2.57,-0.94 1.18,0 2.29,0.52 3.05,1.41 1.42,1.68 1.21,4.2 -0.47,5.62 l -27.02,22.83 c -0.72,0.61 -1.63,0.94 -2.57,0.94 z"
         id="path30" />
      <path
         d="m 567.42,520.21 c -0.52,0 -1.03,-0.22 -1.39,-0.65 -0.65,-0.77 -0.55,-1.92 0.22,-2.57 l 27.01,-22.83 c 0.77,-0.65 1.92,-0.55 2.57,0.22 0.65,0.77 0.55,1.92 -0.22,2.57 l -27.01,22.83 c -0.34,0.29 -0.76,0.43 -1.18,0.43 z"
         id="path32" />
    </g>
    <g
       id="g40">
      <path
         d="m 572.56,531.37 c -1.69,0 -3.2,-1.07 -3.76,-2.66 -0.35,-1.01 -0.3,-2.09 0.16,-3.05 0.46,-0.96 1.27,-1.68 2.27,-2.04 l 32.8,-11.58 c 0.43,-0.15 0.88,-0.23 1.33,-0.23 1.69,0 3.2,1.07 3.76,2.66 0.35,1 0.3,2.09 -0.16,3.05 -0.46,0.96 -1.27,1.69 -2.27,2.04 l -32.8,11.58 c -0.43,0.15 -0.88,0.23 -1.33,0.23 z"
         id="path36" />
      <path
         d="m 572.56,529.21 c -0.75,0 -1.45,-0.47 -1.72,-1.22 -0.34,-0.95 0.16,-1.99 1.11,-2.33 l 32.8,-11.58 c 0.95,-0.33 1.99,0.16 2.33,1.11 0.34,0.95 -0.16,1.99 -1.11,2.33 l -32.8,11.58 c -0.2,0.07 -0.41,0.1 -0.61,0.1 z"
         id="path38" />
    </g>
    <g
       id="g46">
      <path
         d="m 576.09,543.26 c -2.05,0 -3.75,-1.53 -3.96,-3.57 -0.11,-1.06 0.2,-2.1 0.87,-2.93 0.67,-0.83 1.62,-1.34 2.68,-1.46 l 33.77,-3.54 c 0.14,-0.01 0.28,-0.02 0.41,-0.02 2.05,0 3.75,1.54 3.97,3.57 0.11,1.06 -0.2,2.1 -0.87,2.92 -0.67,0.83 -1.62,1.34 -2.68,1.46 l -33.77,3.54 c -0.15,0.01 -0.28,0.02 -0.42,0.02 z"
         id="path42" />
      <path
         d="m 576.09,541.1 c -0.92,0 -1.71,-0.7 -1.81,-1.63 -0.1,-1 0.62,-1.9 1.62,-2 l 33.77,-3.54 c 1,-0.1 1.9,0.62 2,1.62 0.1,1 -0.62,1.9 -1.62,2 l -33.77,3.54 c -0.06,0 -0.13,0 -0.19,0 z"
         id="path44" />
    </g>
    <g
       id="g52">
      <path
         d="m 607.87,563.55 c -0.15,0 -0.29,0 -0.44,-0.03 -0.18,-0.02 -0.37,-0.05 -0.56,-0.1 l -34.92,-9.06 c -2.13,-0.55 -3.41,-2.73 -2.86,-4.86 0.46,-1.76 2.04,-2.99 3.86,-2.99 0.33,0 0.67,0.04 1,0.13 l 34.92,9.06 c 2.13,0.55 3.41,2.73 2.86,4.86 -0.46,1.76 -2.04,2.99 -3.86,2.99 z"
         id="path48" />
      <path
         d="m 607.67,561.38 c -0.09,0 -0.17,-0.03 -0.26,-0.05 l -34.91,-9.06 c -0.97,-0.25 -1.56,-1.25 -1.31,-2.22 0.25,-0.98 1.25,-1.56 2.22,-1.31 l 34.91,9.06 c 0.97,0.25 1.56,1.25 1.31,2.22 -0.23,0.89 -1.08,1.45 -1.96,1.35 z"
         id="path50" />
    </g>
    <g
       id="g58">
      <path
         d="m 595.72,584.7 c -0.14,0 -0.29,0 -0.43,-0.02 -0.67,-0.07 -1.33,-0.32 -1.88,-0.72 l -27.94,-19.83 c -1.79,-1.27 -2.22,-3.76 -0.94,-5.56 0.75,-1.05 1.96,-1.68 3.25,-1.68 0.83,0 1.63,0.26 2.31,0.74 l 27.94,19.83 c 0.87,0.62 1.44,1.53 1.62,2.58 0.18,1.05 -0.06,2.11 -0.68,2.97 -0.74,1.05 -1.96,1.68 -3.25,1.68 z"
         id="path54" />
      <path
         d="m 595.52,582.53 c -0.3,-0.03 -0.6,-0.14 -0.86,-0.33 l -27.94,-19.84 c -0.82,-0.58 -1.01,-1.72 -0.43,-2.54 0.58,-0.82 1.72,-1.02 2.54,-0.43 l 27.94,19.84 c 0.82,0.58 1.01,1.72 0.43,2.54 -0.4,0.56 -1.05,0.83 -1.68,0.76 z"
         id="path56" />
    </g>
    <g
       id="g64">
      <path
         d="m 575.7,599.74 c -1.33,-0.08 -2.53,-0.82 -3.2,-1.97 l -16.36,-28.05 c -1.11,-1.9 -0.46,-4.34 1.43,-5.45 0.61,-0.36 1.31,-0.54 2.01,-0.54 1.41,0 2.73,0.76 3.45,1.98 l 16.36,28.05 c 1.11,1.9 0.46,4.34 -1.43,5.45 -0.61,0.36 -1.3,0.54 -2.01,0.54 -0.08,0 -0.16,0 -0.24,0 z"
         id="path60" />
      <path
         d="m 575.83,597.58 c -0.59,-0.04 -1.15,-0.35 -1.47,-0.9 L 558,568.63 c -0.51,-0.87 -0.21,-1.99 0.66,-2.49 0.87,-0.51 1.99,-0.21 2.49,0.66 l 16.36,28.05 c 0.51,0.87 0.21,1.99 -0.66,2.49 -0.32,0.19 -0.68,0.27 -1.03,0.25 z"
         id="path62" />
    </g>
    <g
       id="g70">
      <path
         d="m 550.38,604.7 c -2.2,0 -3.99,-1.79 -3.99,-3.99 v -31.52 c 0,-2.2 1.79,-3.99 3.99,-3.99 2.2,0 3.99,1.79 3.99,3.99 v 31.52 c 0,2.2 -1.79,3.99 -3.99,3.99 z"
         id="path66" />
      <path
         d="m 550.39,602.54 c -1.01,0 -1.82,-0.82 -1.82,-1.82 V 569.2 c 0,-1.01 0.82,-1.82 1.82,-1.82 1,0 1.82,0.82 1.82,1.82 v 31.52 c 0,1.01 -0.82,1.82 -1.82,1.82 z"
         id="path68" />
    </g>
    <g
       id="g76">
      <path
         d="m 536.87,606.17 c -2.2,0 -3.99,-1.79 -3.99,-3.99 V 477.61 c 0,-2.2 1.79,-3.99 3.99,-3.99 2.2,0 3.99,1.79 3.99,3.99 v 124.57 c 0,2.2 -1.79,3.99 -3.99,3.99 z"
         id="path72" />
      <path
         d="m 536.87,604.01 c -1.01,0 -1.82,-0.82 -1.82,-1.82 V 477.62 c 0,-1.01 0.82,-1.82 1.82,-1.82 1,0 1.82,0.82 1.82,1.82 v 124.57 c 0,1.01 -0.82,1.82 -1.82,1.82 z"
         id="path74" />
    </g>
    <g
       id="g82">
      <path
         d="m 521.13,606.37 c -2.2,0 -3.99,-1.79 -3.99,-3.99 V 477.81 c 0,-2.2 1.79,-3.99 3.99,-3.99 2.2,0 3.99,1.79 3.99,3.99 v 124.57 c 0,2.2 -1.79,3.99 -3.99,3.99 z"
         id="path78" />
      <path
         d="m 521.13,604.2 c -1.01,0 -1.82,-0.82 -1.82,-1.82 V 477.81 c 0,-1.01 0.82,-1.82 1.82,-1.82 1,0 1.82,0.82 1.82,1.82 v 124.57 c 0,1.01 -0.82,1.82 -1.82,1.82 z"
         id="path80" />
    </g>
  </g>
</svg>
