<?xml version="1.0" encoding="UTF-8" standalone="no"?>
<svg
   version="1.0"
   width="1233.99328pt"
   height="202.072499pt"
   viewBox="-49.33064 -18.28601 1233.99328 202.072499"
   preserveAspectRatio="xMidYMid meet"
   id="svg32"
   sodipodi:docname="sentinel-logo-dark.svg"
   xmlns:inkscape="http://www.inkscape.org/namespaces/inkscape"
   xmlns:sodipodi="http://sodipodi.sourceforge.net/DTD/sodipodi-0.dtd"
   xmlns="http://www.w3.org/2000/svg"
   xmlns:svg="http://www.w3.org/2000/svg">
  <defs
     id="defs36" />
  <sodipodi:namedview
     id="namedview34"
     pagecolor="#ffffff"
     bordercolor="#666666"
     borderopacity="1.0"
     inkscape:pageshadow="2"
     inkscape:pageopacity="0.0"
     inkscape:pagecheckerboard="0"
     inkscape:document-units="pt"
     showgrid="false" />
  <metadata
     id="metadata2">
Created by potrace 1.16, written by Peter Selinger 2001-2019
</metadata>
  <g
     transform="matrix(0.1,0,0,-0.1,-78.068075,432.60047)"
     fill="#000000"
     stroke="none"
     id="g30">
    <path
       d="m 8775,4456 c -41,-18 -82,-67 -96,-116 -10,-33 -9,-46 5,-82 32,-81 84,-119 165,-120 58,0 97,19 139,66 95,108 11,267 -140,266 -24,-1 -57,-7 -73,-14 z"
       id="path4" />
    <path
       d="m 4055,4428 c -186,-24 -365,-148 -442,-305 -38,-77 -38,-79 -38,-198 0,-115 1,-123 32,-185 55,-113 158,-202 301,-260 38,-15 155,-54 258,-85 283,-84 350,-121 383,-212 31,-84 9,-164 -66,-237 -74,-73 -187,-108 -323,-101 -191,10 -323,98 -345,227 -4,21 -12,41 -17,45 -9,5 -159,7 -260,4 -23,-1 -24,-45 -3,-126 49,-188 202,-331 412,-386 83,-22 276,-30 383,-16 239,32 423,168 491,363 59,174 21,350 -106,477 -70,70 -210,141 -380,192 -310,95 -361,115 -423,169 -42,37 -62,81 -62,138 1,131 131,234 311,246 185,11 336,-70 374,-202 15,-50 19,-56 48,-61 18,-3 68,-4 112,-1 44,2 90,5 103,5 19,1 22,7 22,39 0,59 -28,152 -63,211 -71,117 -229,224 -372,250 -73,13 -261,18 -330,9 z"
       id="path6" />
    <path
       d="m 12110,3515 v -905 h 140 140 v 905 905 h -140 -140 z"
       id="path8" />
    <path
       d="m 578,4373 c -3,-21 -6,-156 -7,-299 l -2,-262 92,-21 c 171,-40 628,-125 634,-119 6,5 -124,273 -207,428 -32,60 -61,79 -354,232 l -152,78 z"
       id="path10" />
    <path
       d="m 2665,4352 c -49,-26 -153,-83 -230,-125 l -140,-78 -102,-207 c -56,-114 -109,-224 -118,-245 -15,-37 -15,-38 2,-33 10,3 86,19 168,36 83,17 240,50 350,73 l 200,42 -1,125 c -2,222 -8,425 -12,443 -6,25 -17,22 -117,-31 z"
       id="path12" />
    <path
       d="m 7978,4289 c -10,-6 -15,-41 -16,-141 -2,-73 -5,-141 -8,-150 -5,-16 -19,-18 -100,-18 h -94 v -120 -120 l 78,-1 c 128,-2 117,5 119,-69 1,-36 4,-234 6,-441 l 4,-375 27,-55 c 52,-106 131,-168 251,-195 41,-10 197,-6 246,6 l 51,12 -7,47 c -3,25 -14,75 -24,111 l -18,65 h -96 c -92,1 -98,2 -125,29 l -29,27 1,417 c 1,326 4,417 14,418 6,1 66,2 132,3 l 120,1 v 120 120 h -130 c -96,0 -132,3 -135,13 -2,6 -6,77 -9,157 -3,80 -5,145 -5,145 -1,0 -55,0 -120,1 -66,0 -126,-3 -133,-7 z"
       id="path14" />
    <path
       d="m 5610,3989 c -107,-8 -160,-22 -235,-64 -214,-119 -329,-346 -327,-645 1,-222 67,-397 196,-525 116,-114 254,-166 446,-167 245,-2 434,102 526,287 25,51 34,79 27,86 -11,11 -207,68 -235,69 -11,0 -26,-17 -39,-41 -30,-59 -93,-115 -153,-136 -34,-11 -81,-17 -141,-17 -78,1 -97,5 -144,28 -29,15 -71,44 -93,64 -51,47 -97,143 -101,207 -2,47 0,50 23,52 14,0 225,1 469,2 l 444,1 -6,123 c -10,239 -65,395 -180,510 -125,126 -281,180 -477,166 z m 180,-270 c 24,-11 59,-31 76,-44 34,-26 101,-152 106,-200 l 3,-30 h -320 -320 l 3,25 c 2,14 17,53 34,88 37,74 109,143 171,165 64,23 192,21 247,-4 z"
       id="path16" />
    <path
       d="m 7065,3990 c -71,-11 -149,-44 -222,-95 l -63,-44 v 64 65 h -140 -140 l 5,-672 c 2,-370 5,-677 5,-683 0,-6 51,-10 133,-10 h 132 l 2,30 c 1,17 2,218 3,449 l 1,418 30,61 c 63,124 152,174 293,165 104,-7 163,-44 207,-131 25,-48 27,-96 28,-589 l 1,-408 h 141 141 l -6,503 c -7,548 -8,559 -67,663 -53,94 -159,175 -264,203 -56,14 -161,20 -220,11 z"
       id="path18" />
    <path
       d="m 9855,3992 c -86,-16 -168,-51 -225,-96 -63,-50 -70,-47 -70,24 v 60 h -135 -135 v -685 -685 h 140 140 l 1,383 c 0,542 3,566 66,644 54,67 111,96 202,101 42,2 94,-1 117,-7 52,-14 117,-70 143,-124 25,-53 29,-135 30,-630 l 1,-368 131,5 c 72,3 134,7 137,10 8,8 5,873 -3,954 -12,122 -52,210 -129,288 -79,78 -168,118 -276,123 -30,1 -68,4 -85,5 -16,1 -39,1 -50,-2 z"
       id="path20" />
    <path
       d="m 11238,3995 c -2,-1 -28,-5 -58,-8 -243,-23 -451,-224 -507,-491 -15,-73 -20,-293 -8,-376 34,-246 226,-461 459,-515 156,-36 336,-21 462,40 78,38 169,114 206,173 35,55 68,136 59,145 -9,9 -208,66 -233,67 -9,0 -26,-17 -39,-37 -50,-85 -102,-125 -194,-149 -141,-38 -302,15 -376,122 -36,53 -69,144 -69,191 v 33 l 393,1 c 407,0 520,4 538,14 22,14 -13,323 -47,414 -29,78 -92,171 -153,229 -54,50 -161,106 -246,127 -53,13 -179,27 -187,20 z m 134,-265 c 49,-14 115,-65 149,-115 31,-46 65,-147 55,-164 -5,-8 -102,-11 -322,-11 h -314 v 23 c 0,37 55,138 101,185 42,43 81,68 129,83 37,11 160,10 202,-1 z"
       id="path22" />
    <path
       d="m 8710,3295 v -685 h 140 140 v 685 685 h -140 -140 z"
       id="path24" />
    <path
       d="m 531,3753 c 8,-10 19,-23 24,-29 6,-6 47,-51 92,-100 44,-49 93,-102 108,-119 15,-16 80,-86 145,-155 64,-69 145,-156 181,-194 91,-99 96,-104 179,-192 41,-43 109,-115 150,-160 115,-123 195,-206 228,-237 29,-28 29,-28 26,-5 -2,13 -13,88 -24,168 -12,80 -23,159 -26,175 -14,100 -65,425 -70,448 -3,15 -15,34 -27,42 -12,8 -209,83 -437,168 -591,220 -566,211 -549,190 z"
       id="path26" />
    <path
       d="m 2600,3680 c -129,-50 -266,-101 -305,-114 -165,-58 -451,-169 -462,-180 -9,-9 -80,-419 -99,-576 -3,-19 -13,-91 -23,-159 l -18,-124 91,94 c 50,52 156,164 235,249 80,85 176,189 215,230 149,159 306,327 326,349 11,13 64,72 118,130 142,152 175,191 166,190 -5,0 -115,-40 -244,-89 z"
       id="path28" />
  </g>
</svg>
