<?xml version="1.0" encoding="UTF-8" standalone="no"?>
<svg
   id="Layer_1"
   version="1.1"
   viewBox="-58.6684 -26.9924 1053.9568 280.40481"
   sodipodi:docname="chief-logo-dark.svg"
   width="1013.42"
   height="269.62"
   xmlns:inkscape="http://www.inkscape.org/namespaces/inkscape"
   xmlns:sodipodi="http://sodipodi.sourceforge.net/DTD/sodipodi-0.dtd"
   xmlns="http://www.w3.org/2000/svg"
   xmlns:svg="http://www.w3.org/2000/svg">
  <sodipodi:namedview
     id="namedview23"
     pagecolor="#ffffff"
     bordercolor="#666666"
     borderopacity="1.0"
     inkscape:pageshadow="2"
     inkscape:pageopacity="0.0"
     inkscape:pagecheckerboard="0"
     showgrid="false" />
  <!-- Generator: Adobe Illustrator 29.7.1, SVG Export Plug-In . SVG Version: 2.1.1 Build 8)  -->
  <defs
     id="defs4">
    <style
       id="style2">
      .st0 {
        fill: #07111b;
      }
    </style>
  </defs>
  <g
     id="g18"
     transform="translate(-491.69,-426.79)">
    <path
       class="st0"
       d="m 775.75,478.26 c 8.35,-12.05 20.94,-18.08 37.76,-18.08 15.47,0 26.99,3.56 34.56,10.68 7.57,7.12 11.97,18.58 13.2,34.39 h 50.45 c -2.69,-27.36 -12.67,-48.6 -29.93,-63.74 -17.27,-15.14 -40.03,-22.7 -68.28,-22.7 -20.41,0 -38.32,4.79 -53.73,14.38 -15.42,9.59 -27.27,23.35 -35.57,41.29 -8.3,17.94 -12.44,38.68 -12.44,62.23 v 14.97 c 0,36.89 9,65.9 26.99,87.03 17.99,21.13 42.69,31.7 74.08,31.7 28.7,0 51.83,-7.57 69.37,-22.7 17.55,-15.13 27.27,-35.88 29.18,-62.22 h -50.45 c -1.12,14.91 -5.52,25.93 -13.2,33.05 -7.68,7.12 -19.31,10.68 -34.9,10.68 -17.27,0 -29.91,-6.11 -37.92,-18.33 -8.02,-12.22 -12.03,-31.56 -12.03,-58.02 v -18.5 c 0.22,-25.34 4.51,-44.03 12.87,-56.09 z"
       id="path6" />
    <path
       class="st0"
       d="m 1024.95,481.71 c -19.51,0 -35.71,7.74 -48.6,23.21 v -96.2 h -48.6 v 258.32 h 48.6 V 537.71 c 6.39,-10.99 16.71,-16.48 30.94,-16.48 10.43,0 17.88,2.5 22.37,7.48 4.48,4.99 6.73,12.7 6.73,23.12 v 115.2 h 48.6 V 550.48 c -0.56,-45.85 -20.57,-68.78 -60.04,-68.78 z"
       id="path8" />
    <path
       class="st0"
       d="m 1136.16,412.93 c -8.41,0 -15.05,2.35 -19.93,7.06 -4.88,4.71 -7.32,10.71 -7.32,17.99 0,7.28 2.49,13.45 7.48,18.16 4.99,4.71 11.57,7.06 19.76,7.06 8.19,0 14.77,-2.35 19.76,-7.06 4.99,-4.71 7.48,-10.76 7.48,-18.16 0,-7.4 -2.47,-13.29 -7.4,-17.99 -4.93,-4.71 -11.55,-7.06 -19.84,-7.06 z"
       id="path10" />
    <rect
       class="st0"
       x="1111.77"
       y="485.07001"
       width="48.77"
       height="181.97"
       id="rect12" />
    <path
       class="st0"
       d="m 1266.54,481.71 c -16.59,0 -31.36,3.9 -44.31,11.69 -12.95,7.79 -22.96,18.89 -30.02,33.3 -7.06,14.41 -10.6,30.75 -10.6,49.02 v 4.71 c 0,27.25 8.38,49.05 25.14,65.42 16.76,16.37 38.48,24.55 65.17,24.55 15.14,0 28.93,-2.89 41.37,-8.66 12.45,-5.77 22.31,-13.82 29.6,-24.13 l -23.88,-26.74 c -10.54,13.57 -25.17,20.35 -43.89,20.35 -12.11,0 -22.12,-3.59 -30.02,-10.76 -7.9,-7.17 -12.64,-16.7 -14.21,-28.59 h 115.87 v -19.84 c 0,-28.81 -7.15,-51.07 -21.44,-66.77 -14.3,-15.7 -33.89,-23.54 -58.78,-23.54 z m 32.46,77.02 h -67.61 c 1.68,-12.11 5.52,-21.41 11.52,-27.92 6,-6.5 13.82,-9.75 23.46,-9.75 10.31,0 18.27,2.94 23.88,8.83 5.6,5.89 8.52,14.21 8.74,24.97 v 3.87 z"
       id="path14" />
    <path
       class="st0"
       d="m 1451.41,444.71 c 5.83,0 10.76,0.5 14.8,1.51 l 0.5,-37.67 c -9.75,-2.24 -17.99,-3.36 -24.72,-3.36 -21.08,0 -37.48,5.63 -49.19,16.9 -11.72,11.27 -17.57,27.11 -17.57,47.51 v 15.47 h -27.08 v 35.65 h 27.08 V 667.03 H 1424 V 520.72 h 36.16 V 485.07 H 1424 v -14.63 c 0,-17.15 9.14,-25.73 27.41,-25.73 z"
       id="path16" />
  </g>
  <polygon
     class="st0"
     points="562.81,405.19 562.81,405.21 518.59,473.44 474.37,473.44 454.31,508.28 477.45,541.2 453.29,575.08 471.8,603.71 515.51,603.71 562.81,674.81 562.81,674.79 610.12,603.69 610.12,603.71 611.11,602.16 652.03,602.16 668.22,575.32 648.65,543.61 671.31,508.26 651.26,473.43 607.03,473.43 "
     id="polygon20"
     transform="translate(-491.69,-426.79)" />
</svg>
