<?xml version="1.0" encoding="UTF-8" standalone="no"?>
<svg
   id="Layer_1"
   data-name="Layer 1"
   viewBox="-57.901252 -26.8 1014.065104 270.40001"
   version="1.1"
   sodipodi:docname="sage-logo-primary.svg"
   width="975.06262"
   height="260"
   xmlns:inkscape="http://www.inkscape.org/namespaces/inkscape"
   xmlns:sodipodi="http://sodipodi.sourceforge.net/DTD/sodipodi-0.dtd"
   xmlns="http://www.w3.org/2000/svg"
   xmlns:svg="http://www.w3.org/2000/svg">
  <sodipodi:namedview
     id="namedview35"
     pagecolor="#ffffff"
     bordercolor="#666666"
     borderopacity="1.0"
     inkscape:pageshadow="2"
     inkscape:pageopacity="0.0"
     inkscape:pagecheckerboard="0"
     showgrid="false" />
  <defs
     id="defs4">
    <style
       id="style2">.cls-1{fill:#060607;}</style>
  </defs>
  <path
     d="m 722.5326,131.58 h -50.67 c -5.87,-6.79 -1.65,-18.65 -2.93,-27.33 0.38,-1.27 4.32,-3.22 4.84,-3.22 h 78.37 c 0.63,0 2.9,2.53 4.78,1.91 v 37.23 c 0,8.57 -9.53,34.89 -13.94,43.37 -26.49,51 -94.55,63.64 -144.14,40.05 -90.81,-43.2 -78.78,-230.1 32.87,-240.94 55,-5.34 102.25,14.47 116.73,70.69 l -30.47,7.44 c -9.46,-21.28 -24.31,-41 -48.9,-44.82 -76,-11.92 -101.42,44.74 -95.76,110.91 8.42,98.25 144.39,104.08 149.22,4.71 z"
     id="path6" />
  <path
     d="m 292.4126,62.77 c -4,-39.6 -39.57,-52.43 -75.42,-47.51 -32.64,4.49 -51,40.58 -15.77,59.35 42.36,22.6 123,16.37 125.62,82.65 4.2,104.77 -179.24,101.33 -186.65,2.9 l 31.53,-5.48 c 5.28,37.15 47.77,51.86 80.93,47.05 39.63,-5.74 61.47,-48.72 18.74,-69.27 -40.15,-19.31 -118.33,-17.79 -122.5,-76.23 -6.32,-88.66 135,-99.22 169.32,-25.91 1.87,4 10.39,25.63 6.73,27.77 z"
     id="path8" />
  <path
     d="m 936.6626,-13.54 v 29.59 l -2.87,2.87 h -119.49 v 70.65 h 100.37 l 2.57,3.17 c -0.52,9.13 3.18,22 -2.57,29.29 h -97.53 l -2.87,2.87 v 71.6 h 119.49 l 2.87,2.87 v 29.59 h -152 l -2.86,-2.86 V -13.54 Z"
     id="path10" />
  <path
     d="m 455.6126,-13.66 -38.06,2 -81.23,240.63 h 32.51 c 3.57,-9.14 14.78,-53.36 21,-56.34 l 96.31,0.77 21.3,55.55 h 28.7 l 2.11,-4 z m -53.33,154.79 -2.58,-4.42 37,-100.56 37.28,105 z"
     id="path12" />
  <path
     d="m 56.142598,43.82 c -0.26,-2 -0.58,-4 -1,-5.88 a 76.94,76.94 0 0 0 -5,-15.54 c -0.89,-2 -1.86,-4 -2.88,-5.88 -13.89,-25.65 -38.0499996,-38.12 -38.0499996,-38.12 0,0 -24.1600004,12.47 -38.0700004,38.09 -1,1.89 -2,3.84 -2.89,5.88 a 76.93,76.93 0 0 0 -5,15.57 q -0.62,2.86 -1,5.88 a 79.8,79.8 0 0 0 -0.55,14.23 c 0,0.88 0.1,1.77 0.17,2.67 0.09,1.09 0.19,2.15 0.3,3.21 a 125,125 0 0 0 2.61,15.81 c 0.48,2 1,4 1.55,5.88 a 95.12,95.12 0 0 0 6.3,16 q 1.59,3.13 3.29,5.88 c 10.84,17.65 23.77000037,23.25 23.77000037,23.25 0,0 -20.52000037,12.93 -31.00000037,30.61 a 50.8,50.8 0 0 0 -3,5.88 33.38,33.38 0 0 0 -2.86,16.29 28.66,28.66 0 0 0 0.9,4.92 c 0.09,0.32 0.18,0.64 0.28,1 a 73.93,73.93 0 0 0 6.55,15.65 q 1.75,3.09 3.69,5.87 A 76.65,76.65 0 0 0 9.2125984,238.4 76.55,76.55 0 0 0 44.142598,210.97 q 1.95,-2.77 3.69,-5.87 a 73.41,73.41 0 0 0 6.55,-15.65 c 0.1,-0.32 0.19,-0.64 0.28,-1 a 27.73,27.73 0 0 0 0.9,-4.92 33.49,33.49 0 0 0 -2.85,-16.29 53.27,53.27 0 0 0 -3,-5.88 c -10.45,-17.68 -31,-30.61 -31,-30.61 0,0 12.93,-5.6 23.77,-23.25 1.12,-1.83 2.23,-3.79 3.29,-5.88 a 95.12,95.12 0 0 0 6.3,-16 c 0.56,-1.89 1.07,-3.85 1.55,-5.88 a 125,125 0 0 0 2.61,-15.81 c 0.11,-1.06 0.21,-2.12 0.3,-3.21 0.07,-0.9 0.13,-1.79 0.17,-2.67 a 79.8,79.8 0 0 0 -0.56,-14.23 z m -66.69,-39.31 A 98.8,98.8 0 0 1 9.1925984,-12.25 98.39,98.39 0 0 1 28.942598,4.51 a 85.26,85.26 0 0 1 9,12 h -57.52 a 85.26,85.26 0 0 1 9.05,-12 z m -12.31,17.89 h 64.17 a 69.11,69.11 0 0 1 5.66,15.57 h -75.5 a 69.63,69.63 0 0 1 5.67,-15.57 z M 9.2125984,229.7 A 70.21,70.21 0 0 1 -15.597402,210.97 h 49.62 A 70.21,70.21 0 0 1 9.2125984,229.7 Z M 38.402598,205.1 h -58.38 a 65,65 0 0 1 -7.54,-15.65 h 73.47 a 65.38,65.38 0 0 1 -7.55,15.65 z m 9,-21.53 h -76.42 c -0.69,-5.43 0.88,-11 3.7,-16.29 h 69.07 c 2.82,5.31 4.39,10.86 3.7,16.29 z m -7.32,-22.17 h -61.73 c 7.69,-10.76 19.3700004,-19.85 25.6500004,-23.82 l 5.14,-3.28 5.2599996,3.29 c 6.32,3.97 17.99,13.05 25.68,23.81 z m -24.61,-38 -6.2599996,3.43 -6.31,-3.43 c -0.61,-0.28 -9.13,-4.32 -17.4000004,-15.88 h 47.42 c -8.28,11.59 -16.78,15.63 -17.45,15.93 z m 21.23,-21.79 h -55 a 82.38,82.38 0 0 1 -7,-16 h 69 a 82.37,82.37 0 0 1 -7,16.05 z m 8.67,-21.92 h -72.31 a 113.77,113.77 0 0 1 -2.79,-15.81 h 77.87 a 115.27,115.27 0 0 1 -2.77,15.86 z m -75.61,-21.69 a 73,73 0 0 1 0.6,-14.23 h 77.71 a 73,73 0 0 1 0.6,14.23 z"
     id="path14" />
  <path
     d="m -19.977402,205.1 a 65.39,65.39 0 0 0 4.38,5.87 h 49.62 a 61.78,61.78 0 0 0 4.38,-5.87 z m -9,-21.53 a 19.56,19.56 0 0 0 0.56,2.78 c 0.29,1.06 0.6,2.08 0.94,3.1 h 73.47 c 0.34,-1 0.65,-2 0.94,-3.1 a 19.56,19.56 0 0 0 0.56,-2.78 z m 69.06,-22.17 h -61.73 a 52.5,52.5 0 0 0 -3.67,5.88 h 69.07 a 52.5,52.5 0 0 0 -3.67,-5.88 z m 6.88,-123.46 h -75.5 c -0.45,1.94 -0.81,3.9 -1.1,5.88 h 77.71 c -0.29,-1.98 -0.65,-3.94 -1.11,-5.88 z m -77.2,20.11 c 0,0.67 0.08,1.35 0.14,2 0.1,1.31 0.22,2.59 0.37,3.85 h 77.87 c 0.15,-1.26 0.27,-2.54 0.37,-3.85 0.06,-0.68 0.11,-1.36 0.14,-2 z m 12,43.61 a 67.25,67.25 0 0 0 3.78,5.88 h 47.42 a 65,65 0 0 0 3.78,-5.88 z m -8.66,-21.92 q 0.76,3.06 1.67,5.88 h 69 q 0.9,-2.82 1.67,-5.88 z m 64.95,-63.25 h -57.63 q -1.8,2.91 -3.28,5.91 h 64.17 c -1,-2 -2.11,-4 -3.3,-5.91 z"
     id="path16" />
  <path
     class="cls-1"
     d="m 50.142598,22.4 h -81.87 c 0.9,-2 1.86,-4 2.89,-5.88 h 76.11 c 1.02,1.88 1.99,3.81 2.87,5.88 z"
     id="path18" />
  <path
     class="cls-1"
     d="m 56.142598,43.82 h -93.87 l 1,-5.88 h 91.87 c 0.44,1.91 0.76,3.87 1,5.88 z"
     id="path20" />
  <polygon
     class="cls-1"
     points="506.13,495.53 498.05,495.53 497.58,489.65 505.62,489.65 584.53,489.65 592.57,489.65 592.1,495.53 584.02,495.53 "
     id="polygon22"
     transform="translate(-535.8574,-431.6)" />
  <path
     class="cls-1"
     d="m 53.632598,79.74 h -88.83 c 0.48,2 1,4 1.55,5.88 h 85.73 z"
     id="path24" />
  <path
     class="cls-1"
     d="m 45.782598,101.66 c -1.06,2.09 -2.17,4 -3.29,5.88 h -66.55 q -1.69,-2.75 -3.29,-5.88 z"
     id="path26" />
  <path
     class="cls-1"
     d="m -34.247402,167.28 h 86.93 a 53.27,53.27 0 0 0 -3,-5.88 h -80.94 z"
     id="path28" />
  <path
     class="cls-1"
     d="m 55.532598,183.57 -1.18,5.88 h -90.28 c -0.1,-0.32 -0.19,-0.64 -0.28,-1 a 28.66,28.66 0 0 1 -0.9,-4.92 z"
     id="path30" />
  <path
     class="cls-1"
     d="m 47.802598,205.1 q -1.74,3.09 -3.69,5.87 h -69.8 q -1.94,-2.77 -3.69,-5.87 z"
     id="path32" />
</svg>
