<?xml version="1.0" encoding="UTF-8" standalone="no"?>
<svg
   id="Layer_1"
   data-name="Layer 1"
   viewBox="-60.384664 -25.173318 1143.202528 185.812557"
   version="1.1"
   sodipodi:docname="chrona-logo-primary.svg"
   width="1099.2333"
   height="178.66591"
   xmlns:inkscape="http://www.inkscape.org/namespaces/inkscape"
   xmlns:sodipodi="http://sodipodi.sourceforge.net/DTD/sodipodi-0.dtd"
   xmlns="http://www.w3.org/2000/svg"
   xmlns:svg="http://www.w3.org/2000/svg">
  <defs
     id="defs19" />
  <sodipodi:namedview
     id="namedview17"
     pagecolor="#ffffff"
     bordercolor="#666666"
     borderopacity="1.0"
     inkscape:pageshadow="2"
     inkscape:pageopacity="0.0"
     inkscape:pagecheckerboard="0"
     showgrid="false" />
  <path
     d="m 138.42333,149.44591 h 27.95 V -18.834094 c 0,-1 -14.21,-2.33 -15.18,-2.41 -10.38,-0.86 -21.29,-0.33 -31.09,3.47 -12.44,4.83 -22.079997,16.4399999 -31.489997,25.5099999 q -16.59,16.0000001 -32.19,32.9400001 c -1.66,1.8 -3.32,3.58 -5,5.38 -15.34,16.68 -40.31,26.14 -54.3799997,30.42 -16.5300003,5 -33.4600003,21.48 -34.7500003,39.550004 -1.56,21.89 0,33.42 0,33.42 h 28.1500003 v -24.19 a 26.49,26.49 0 0 1 12.77,-23 22.33,22.33 0 0 1 17.7199997,-2.25 c 0,0 0.39,49.06 0,49.45 -0.39,0.39 27.75,0 27.75,0 V 89.455906 a 27.08,27.08 0 0 1 9.19,-20.63 c 5.28,-4.52 12.74,-7.37 22.08,-2.05 V 149.44591 H 107.71333 V 37.115906 a 33.2,33.2 0 0 1 12.38,-26.24 c 5,-3.9000001 11.24,-6.4500001 18.3,-4.3000001 0.03,0 -0.95,141.8900041 0.03,142.8700041 z"
     id="path2" />
  <path
     d="m 325.15333,100.21591 c 0,15.47 -11.6,25.87 -28.87,25.87 -21.89,0 -33,-15.37 -33,-45.660004 v -28.37 c 0,-30.3 11.1,-45.6600001 33,-45.6600001 16.46,0 28.87,12.2500001 28.87,28.5000001 v 7.13 h 30.24 v -7.13 c 0,-32.5600001 -24.31,-55.29 -59.11,-55.29 -39.75,0 -63.47,27.0799999 -63.47,72.45 v 28.37 c 0,45.900004 23.13,72.230004 63.47,72.230004 33.83,0 59.35,-22.54 59.35,-52.44 v -7.130004 h -30.48 z"
     id="path4" />
  <polygon
     points="861.31,454.41 833.81,454.41 833.81,623.86 861.31,623.86 861.31,549.72 916.04,549.72 916.04,623.86 943.54,623.86 943.54,454.41 916.04,454.41 916.04,523.19 861.31,523.19 "
     id="polygon6"
     transform="translate(-458.77667,-472.26409)" />
  <path
     d="m 631.58333,35.165906 c 0,-31.6000001 -20.72,-50.46 -55.42,-50.46 h -58.6 V 153.81591 h 28.58 V 85.815906 h 19.39 l 39.66,68.000004 h 31.11 l -40.52,-70.300004 c 22.9,-6.01 35.8,-23.2 35.8,-48.35 z m -85.44,-24 h 28.66 c 20.51,0 28.88,6.95 28.88,24 0,17.05 -8.63,24.2 -28.88,24.2 h -28.66 z"
     id="path8" />
  <path
     d="m 709.39333,-20.394094 c -37.45,0 -59.8,28.3599999 -59.8,75.87 v 25.94 c 0,47.370004 22.35,75.650004 59.8,75.650004 37.45,0 59.83,-28.28 59.83,-75.650004 v -25.94 c 0,-47.5100001 -22.38,-75.87 -59.83,-75.87 z m 0,149.760004 c -27.75,0 -30.75,-33.690004 -30.75,-48.170004 v -25.46 c 0,-14.49 3,-48.1800001 30.75,-48.1800001 27.75,0 30.76,33.6900001 30.76,48.1800001 v 25.49 c 0,14.45 -3,48.140004 -30.76,48.140004 z"
     id="path10" />
  <polygon
     points="1257,452.65 1257,623.08 1284.04,623.08 1284.04,514.56 1338.9,623.08 1364.02,623.08 1364.02,452.65 1336.98,452.65 1336.98,561.33 1281.68,452.65 "
     id="polygon12"
     transform="translate(-458.77667,-472.26409)" />
  <path
     d="m 1009.3133,-17.754094 h -32.99997 l -51.51,168.570004 h 31.27 l 13.2,-43.54 h 47.09997 l 13.2,43.54 h 31.26 z m -32.08997,98.63 15.65,-52.86 15.50997,52.86 z"
     id="path14" />
</svg>
