<?xml version="1.0" encoding="UTF-8" standalone="no"?>
<!-- Generator: Adobe Illustrator 25.0.0, SVG Export Plug-In . SVG Version: 6.00 Build 0)  -->

<svg
   version="1.1"
   id="Layer_1"
   x="0px"
   y="0px"
   viewBox="-63.704498 -30.03 1315.833896 438.360021"
   xml:space="preserve"
   sodipodi:docname="rigor-logo-dark.svg"
   width="1265.225"
   height="421.5"
   xmlns:inkscape="http://www.inkscape.org/namespaces/inkscape"
   xmlns:sodipodi="http://sodipodi.sourceforge.net/DTD/sodipodi-0.dtd"
   xmlns="http://www.w3.org/2000/svg"
   xmlns:svg="http://www.w3.org/2000/svg"><defs
   id="defs35" /><sodipodi:namedview
   id="namedview33"
   pagecolor="#ffffff"
   bordercolor="#666666"
   borderopacity="1.0"
   inkscape:pageshadow="2"
   inkscape:pageopacity="0.0"
   inkscape:pagecheckerboard="0"
   showgrid="false" />
<g
   id="g30"
   transform="translate(-365.77498,-350.8)">
	<path
   d="m 347.2,329.2 c 0,0 -4.1,39.7 54,47.9 28.3,4.1 40,38.6 40,38.6 0,0 3.6,-30.3 45.7,-40.7 42.1,-10.4 44.9,-23.3 47.6,-45.8 0,0 -25.4,30.8 -62.2,25.9 -31.1,-4.1 -38.8,-5.5 -54.7,-1.4 -14.1,3.6 -29,2.8 -42.2,-3.1 -18.1,-8.1 -28.2,-21.4 -28.2,-21.4 z"
   id="path2" />
	<circle
   cx="475.79999"
   cy="408"
   r="17"
   id="circle4" />
	<circle
   cx="405.20001"
   cy="408"
   r="17"
   id="circle6" />
	<g
   id="g28">
		<path
   d="M 502.9,666.2 C 605.3,542.6 527,450.8 527,450.8 c 2.9,-13.3 0,-25.7 0,-25.7 -3.6,27.8 -31,44.4 -58,67.6 -23.7,21.4 -27.5,49.1 -27.5,49.1 0,0 -3.8,-27.7 -27.5,-49.1 -27,-23.2 -54.4,-39.8 -58,-67.6 0,0 -2.9,12.4 0,25.7 0,0 -78.3,91.8 24.1,215.4 0,0 -33.4,-54.2 -10.2,-127.4 0,0 -19.5,129.5 71.5,178.6 91,-49.1 71.5,-178.6 71.5,-178.6 23.5,73.2 -10,127.4 -10,127.4 z"
   id="path8" />
		<path
   d="m 441.6,508.6 c 0,0 6.6,-23.9 43.6,-49.1 37,-25.2 48,-50.3 22,-86.8 l -18.7,5.7 c 0,0 17.9,11.9 16.4,30.5 -1.3,16.2 -11.9,26.9 -25.6,29 -12.6,1.9 -33.4,-5.9 -37.7,16.7 0,0 -1.3,-19.5 -30.7,-17.6 -27.2,1.8 -35.8,-19.7 -35.8,-27.9 0,-8.2 2.1,-22.9 17.1,-30.9 l -18.8,-5.5 c 0,0 -25,29.6 -9.1,56.9 15.9,27.3 45.6,32.2 61.6,55 16,22.9 15.7,24 15.7,24 z"
   id="path10" />
		<path
   d="m 441.6,415.2 v 0 c -0.1,0 -0.3,0 -0.4,0 -0.1,0 -0.3,0 -0.4,0 v 0 c -6.9,0.4 -12.4,6.6 -8.5,13 4,6.6 8.9,13.6 8.9,13.6 0,0 4.9,-7.1 9,-13.6 3.8,-6.4 -1.7,-12.6 -8.6,-13 z"
   id="path12" />
		<g
   id="g26">
			<path
   d="M 894.9,620.4 858,566.7 c -8.3,-12.1 -17.8,-24 -30.6,-32.7 45.3,-9.4 69.4,-45.3 69.4,-79.3 0,-23.8 -8.9,-45.3 -25.1,-60.5 -16.1,-15.2 -38.8,-23.5 -64,-23.5 H 687.2 v 17.6 l 21.2,9.4 v 233.1 l -21.2,9.4 v 17.6 h 90.1 V 641 L 753,629.6 v -92.2 h 3.8 c 20.2,0 34.6,8.6 47.9,28.8 l 59.5,91.5 h 66 v -19.2 l -5.7,-0.6 c -16,-1.6 -21.7,-6 -29.6,-17.5 z M 752.9,399.6 H 799 c 42,0 50.8,30 50.8,55.1 0,22.3 -13.5,55.5 -50.8,55.5 h -46.1 z"
   id="path14" />
			<polygon
   points="937.7,473.9 956.1,483.7 956.1,631 936.9,640.4 936.9,657.9 1016.7,657.9 1016.7,641.4 997.9,631.2 997.9,455.1 937.7,457.1 "
   id="polygon16" />
			<path
   d="m 975.8,422.3 c 14.5,0 26.8,-12.5 26.8,-27.2 0,-14.7 -12.3,-27.2 -26.8,-27.2 -15,0 -27.2,12.2 -27.2,27.2 0,15 12.2,27.2 27.2,27.2 z"
   id="path18" />
			<path
   d="m 1166.9,459 c -12.5,-6.1 -26.4,-9.1 -41.4,-9.1 -22,0 -42.3,6.9 -57.1,19.4 -16.3,13.8 -25,33.2 -25,56 0,17.6 5,33 14.9,45.7 -18.8,11.9 -29,28.3 -29,46.7 0,15.1 5.8,38.6 40.1,46.5 l -13,2.7 -1.4,2.8 c -4.4,8.8 -6.6,17.7 -6.6,27.2 0,34.2 28.6,53.8 78.5,53.8 26.1,0 50.5,-6.7 68.7,-19 20,-13.4 31,-32.6 31,-54.1 0,-46.9 -39,-52.3 -68.3,-52.3 h -60 c -33.1,0 -35.9,-6.9 -35.9,-14 0,-9.9 8.5,-17.9 16.8,-22.5 13.3,7.6 29.2,11.6 46.2,11.6 22,0 42.3,-6.9 57.1,-19.4 16.3,-13.8 25,-33.2 25,-56 0,-14.9 -3.7,-28.4 -10.9,-39.8 h 33.6 v -35.6 h -10.1 z m -69.4,207.9 h 66.1 c 11.9,0 26.1,2.8 26.1,15.9 0,25.6 -30.9,43.4 -58.6,43.4 -25.9,0 -41.4,-10.9 -41.4,-29.2 0,-7.6 2.4,-15.7 7.4,-24.7 l 1.3,-2.3 z m 28,-90.8 c -35.1,0 -37.9,-38.9 -37.9,-50.8 0,-11.9 2.7,-50.8 37.9,-50.8 35.1,0 37.9,38.9 37.9,50.8 0,11.9 -2.7,50.8 -37.9,50.8 z"
   id="path20" />
			<path
   d="m 1339.5,449.9 c -57.4,0 -102.4,46.5 -102.4,105.9 -0.2,30.1 11.3,59.1 31.7,79.6 18.9,19 44,29.5 70.7,29.5 56.8,0 101.3,-47.9 101.3,-109.1 0,-28.2 -10.3,-54.7 -29,-74.6 -19,-20.2 -44.7,-31.3 -72.3,-31.3 z m 0,188.5 c -48,0 -55.1,-51.7 -55.1,-82.6 0,-29.7 7.2,-79.4 55.1,-79.4 40.1,0 54.3,41 54.3,79.4 0.1,19.4 -3.8,82.6 -54.3,82.6 z"
   id="path22" />
			<path
   d="m 1589.2,457.1 c -4.6,-3.6 -14.2,-7.2 -25.1,-7.2 -20.5,0 -39,10.8 -52,29.4 v -24.2 l -59.5,2 v 16.6 l 18,10.2 V 631 l -19.2,9.4 v 17.5 h 84.6 v -16.7 l -23.9,-11.8 v -95.8 c 8.8,-28.6 21.6,-43.1 37.9,-43.1 8.3,0 14.7,2.5 23.2,8.9 l 7.7,5.9 11.7,-45.6 z"
   id="path24" />
		</g>
	</g>
</g>
</svg>
