<?xml version="1.0" encoding="UTF-8" standalone="no"?>
<svg
   version="1.0"
   width="1083.7242pt"
   height="194.060308pt"
   viewBox="-43.78085 -7.871929 1083.7242 194.060308"
   preserveAspectRatio="xMidYMid meet"
   id="svg8"
   sodipodi:docname="farad-logo-primary-1142x312.svg"
   xmlns:inkscape="http://www.inkscape.org/namespaces/inkscape"
   xmlns:sodipodi="http://sodipodi.sourceforge.net/DTD/sodipodi-0.dtd"
   xmlns="http://www.w3.org/2000/svg"
   xmlns:svg="http://www.w3.org/2000/svg">
  <defs
     id="defs12" />
  <sodipodi:namedview
     id="namedview10"
     pagecolor="#ffffff"
     bordercolor="#666666"
     borderopacity="1.0"
     inkscape:pageshadow="2"
     inkscape:pageopacity="0.0"
     inkscape:pagecheckerboard="0"
     inkscape:document-units="pt"
     showgrid="false" />
  <metadata
     id="metadata2">
Created by potrace 1.16, written by Peter Selinger 2001-2019
</metadata>
  <g
     transform="matrix(0.1,0,0,-0.1,-75.297545,192.49333)"
     fill="#0064cc"
     stroke="none"
     id="g6">
    <path
       d="m 3205,1961 c -30,-6 -30,-7 -36,-86 -3,-44 -5,-454 -5,-912 1,-669 4,-835 14,-845 15,-15 264,-19 279,-5 4,5 9,153 11,330 1,177 4,354 5,392 l 2,70 85,2 c 47,1 190,4 317,6 128,2 236,6 239,10 11,11 16,210 6,224 -12,18 -47,21 -349,22 -233,1 -274,3 -287,17 -14,13 -16,51 -16,260 0,187 3,246 13,249 6,2 215,6 463,8 249,2 457,8 464,12 14,8 10,228 -4,242 -9,9 -1158,13 -1201,4 z m 1792,2 c -41,-7 -44,-15 -242,-633 C 4686,1113 4586,802 4533,640 4352,79 4363,122 4398,109 c 42,-17 273,-5 287,14 6,8 30,75 54,148 24,74 50,140 59,146 12,10 100,13 363,13 h 347 l 15,-38 c 8,-20 31,-89 51,-153 29,-92 42,-119 60,-127 29,-13 239,-14 273,-1 19,7 23,14 18,32 -20,69 -109,352 -200,632 -57,176 -149,460 -204,630 -123,381 -177,545 -185,552 -7,8 -301,13 -339,6 z m 277,-753 c 162,-525 163,-529 144,-541 -17,-11 -519,-11 -537,0 -16,10 -11,34 31,171 16,52 52,169 79,260 129,425 154,496 169,469 4,-8 55,-169 114,-359 z m 974,752 c -24,-3 -27,-7 -30,-60 -3,-31 -4,-443 -4,-914 1,-689 4,-860 14,-870 19,-19 243,-22 269,-3 17,13 18,36 21,372 1,197 5,373 8,391 l 5,32 h 157 c 86,0 162,-4 169,-8 7,-4 35,-57 64,-117 105,-226 129,-277 129,-280 0,-4 54,-120 120,-260 71,-149 57,-139 205,-142 69,-1 133,1 142,4 10,4 13,14 9,33 -3,16 -77,176 -165,358 -169,349 -191,397 -191,418 0,7 33,28 73,48 112,54 200,149 248,267 17,42 22,79 25,164 4,188 -35,303 -141,411 -64,65 -169,124 -258,144 -44,9 -806,21 -869,12 z m 828,-289 c 165,-88 191,-336 48,-462 -72,-63 -114,-71 -369,-71 -185,0 -224,2 -228,14 -3,8 -6,135 -7,281 v 266 l 257,-3 c 244,-3 260,-4 299,-25 z m 1337,289 c -23,-3 -52,-67 -107,-242 -40,-125 -208,-645 -281,-870 -74,-230 -189,-596 -205,-660 -21,-79 -21,-77 18,-84 48,-8 177,-7 225,0 46,8 51,16 106,186 26,79 48,128 58,132 9,4 172,6 362,6 l 347,-2 48,-144 c 27,-79 54,-151 61,-161 11,-15 31,-18 127,-19 144,-2 178,3 178,26 0,10 -11,51 -24,91 -128,398 -385,1196 -493,1534 -55,173 -71,205 -102,207 -46,3 -295,3 -318,0 z m 280,-762 c 130,-426 150,-498 143,-516 -5,-14 -37,-15 -260,-12 -153,2 -259,7 -265,13 -6,6 1,46 20,110 63,214 201,661 221,713 20,54 21,55 33,31 7,-13 56,-166 108,-339 z m 985,762 c -24,-3 -26,-7 -30,-55 -2,-29 -5,-444 -7,-923 l -2,-871 20,-6 c 29,-7 682,-1 772,8 192,18 382,133 453,273 59,116 60,134 60,647 0,414 -2,478 -17,534 -24,89 -61,151 -129,220 -67,66 -137,107 -253,145 -80,26 -80,26 -460,28 -209,2 -392,2 -407,0 z m 797,-287 c 63,-31 120,-97 149,-173 l 26,-67 -2,-415 -3,-415 -35,-70 c -26,-51 -48,-79 -85,-107 -72,-55 -137,-66 -375,-68 l -197,-1 -7,32 c -3,17 -6,319 -6,671 v 640 l 248,-4 c 222,-3 251,-5 287,-23 z M 541,1911 c -10,-6 -13,-83 -14,-360 l -2,-351 h 210 210 l -2,342 c -1,189 -2,348 -2,353 -1,6 -52,10 -137,10 -75,0 -138,3 -141,7 -2,5 -10,5 -16,1 -16,-10 -69,-11 -82,-2 -6,4 -17,4 -24,0 z m 889,1 c 0,-4 -34,-8 -76,-7 -41,0 -78,-3 -81,-9 -9,-14 -9,-296 0,-296 5,0 5,-6 0,-12 -10,-17 -13,-38 -5,-39 43,-6 160,-3 170,4 6,5 12,6 12,1 0,-13 363,-12 372,1 5,6 8,6 8,0 0,-11 524,-14 535,-3 6,6 8,105 5,323 v 31 l -121,-1 c -66,0 -123,3 -125,7 -3,5 -11,5 -17,1 -17,-11 -90,-11 -104,-1 -6,5 -14,5 -17,0 -6,-10 -48,-8 -65,3 -6,3 -11,2 -11,-3 0,-12 -63,-9 -72,3 -5,7 -8,6 -8,0 0,-14 -130,-14 -130,0 0,7 -3,6 -8,0 -4,-6 -23,-10 -42,-10 -19,0 -38,4 -42,10 -5,7 -8,6 -8,-1 0,-12 -58,-13 -77,-1 -6,4 -14,3 -17,-1 -6,-10 -48,-8 -65,3 -6,3 -11,2 -11,-3 z m -149,-487 c -4,-5 -8,-79 -7,-163 1,-85 -2,-156 -5,-157 -3,-2 -53,-5 -112,-6 -71,-1 -107,-5 -108,-13 0,-6 -1,-72 -2,-146 l -2,-135 -257,-3 -258,-2 -1,-23 c 0,-12 -1,-37 -2,-55 -1,-17 3,-32 8,-32 7,0 7,-3 0,-8 -14,-10 -14,-472 0,-472 6,0 4,-4 -4,-9 -9,-6 -10,-10 -2,-16 10,-5 317,-9 469,-6 l 32,1 v 144 144 l 60,4 c 33,1 60,1 60,-2 0,-3 28,-5 62,-5 h 62 V 323 c 0,-112 2,-143 13,-144 7,0 78,-1 158,-1 80,0 152,1 160,1 11,1 15,10 13,34 -1,18 1,37 4,43 4,5 3,16 -2,24 -5,8 -5,21 0,31 5,9 6,19 3,23 -11,11 -12,36 -1,36 7,0 7,4 0,13 -6,7 -7,18 -3,25 4,8 6,24 3,37 -3,21 0,24 29,27 19,2 48,0 66,-3 18,-4 35,-4 38,-1 3,3 29,6 58,7 h 51 l 1,177 c 0,97 3,179 6,182 3,3 114,6 247,6 150,1 244,5 248,11 7,13 6,320 -2,328 -3,3 -170,6 -372,7 -202,1 -371,2 -375,3 -4,0 -3,9 2,20 6,10 8,21 4,24 -3,4 -5,49 -5,102 0,52 -3,96 -6,96 -39,7 -325,2 -331,-6 z m 854,-693 c -3,-3 -5,-128 -5,-279 0,-211 3,-273 13,-274 15,-1 366,-1 425,0 l 42,1 v 279 278 l -235,1 c -129,0 -237,-3 -240,-6 z"
       id="path4" />
  </g>
</svg>
