<?xml version="1.0" encoding="UTF-8" standalone="no"?>
<svg
   id="Layer_1"
   data-name="Layer 1"
   viewBox="-64.350244 -25.344 1349.412688 194.68801"
   version="1.1"
   sodipodi:docname="boltzmann-logo-primary.svg"
   width="1297.5122"
   height="187.2"
   xmlns:inkscape="http://www.inkscape.org/namespaces/inkscape"
   xmlns:sodipodi="http://sodipodi.sourceforge.net/DTD/sodipodi-0.dtd"
   xmlns="http://www.w3.org/2000/svg"
   xmlns:svg="http://www.w3.org/2000/svg">
  <sodipodi:namedview
     id="namedview41"
     pagecolor="#ffffff"
     bordercolor="#666666"
     borderopacity="1.0"
     inkscape:pageshadow="2"
     inkscape:pageopacity="0.0"
     inkscape:pagecheckerboard="0"
     showgrid="false" />
  <defs
     id="defs4">
    <style
       id="style2">.cls-1{fill:none;}.cls-2{fill:#fff;}</style>
  </defs>
  <path
     d="m 180.50219,-11.38 h 67.09 c 37.1,0 51.17,21.92 51.17,44.51 0,19.61 -9.17,32.35 -19.54,37.72 10.35,4.42 23.94,16.78 23.94,39.65 0,29.77 -20.64,52.07 -53.31,52.07 h -69.35 z m 63.28,68.62 c 15.77,0 22.29,-8 22.29,-20.24 0,-12.75 -8.53,-19.32 -21.34,-19.32 h -31.64 v 39.56 z m -30.69,76.28 h 30 c 17.94,0 26.07,-8.5 26.07,-24.27 0,-14 -8,-23 -26.26,-23 h -29.81 z"
     id="path6" />
  <path
     d="m 433.69219,97 c 0,39.52 -20.88,68.58 -57.39,68.58 -35.76,0 -56.62,-28.89 -56.62,-67.88 0,-40.3 21.52,-68.77 58.12,-68.77 33.94,0.07 55.89,27.15 55.89,68.07 z m -81.62,0.26 c 0,25.13 9.55,40 24.92,40 15.62,0 24.31,-14.91 24.31,-39.81 0,-27.33 -8.85,-40.26 -24.75,-40.26 -14.81,0.05 -24.48,12.47 -24.48,40.09 z"
     id="path8" />
  <path
     d="M 455.60219,162.57 V -21.6 h 31.92 v 184.17 z"
     id="path10" />
  <path
     d="m 505.18219,32 h 17.77 V -3.38 h 31.92 V 32 h 22.59 v 27.18 h -22.59 v 64.45 c 0,9.91 2.68,13.77 12.19,13.77 a 51.15,51.15 0 0 0 7.27,-0.4 v 24.88 c -6.34,2.43 -15,2.49 -21.46,2.49 -22.49,0 -29.92,-13.63 -29.92,-36.48 v -68.7 h -17.77 z"
     id="path12" />
  <path
     d="m 590.45219,135.42 57,-74.93 h -54.22 V 32 h 90.32 v 28.1 l -56,74 h 60 l -3.85,28.51 h -93.25 z"
     id="path14" />
  <path
     d="m 706.15219,65.64 c 0,-11.3 0,-22.49 -0.23,-33.66 h 30.52 c 0.42,3.18 1.06,10.47 1.23,15.57 5.86,-9.73 15.12,-18.6 32,-18.6 16.57,0 25.68,9.72 29.74,19.87 6.75,-10.68 16.71,-19.87 35.52,-19.87 20.09,0 36.54,14 36.54,47.95 v 85.67 h -31.14 V 81.3 c 0,-11.8 -3.77,-23.33 -16.84,-23.33 -13.57,0 -18.86,9.91 -18.86,29.94 v 74.66 h -31.3 V 82.66 c 0,-13.53 -2.94,-24.47 -16.57,-24.47 -13,0 -19.13,9 -19.13,31.44 v 72.94 h -31.52 z"
     id="path16" />
  <path
     d="m 994.40219,128.83 c 0,12.43 0.89,30.59 1.55,33.74 h -30.49 c -0.89,-2.58 -1.56,-9.46 -1.61,-12.76 -4.18,7.33 -12,15.79 -32.41,15.79 -27.8,0 -39.52,-20.7 -39.52,-41 0,-29.75 21.09,-43.47 54.89,-43.47 h 16.45 v -8 c 0,-9.29 -3,-18.42 -17.75,-18.42 -13.48,0 -16.42,6.49 -17.89,15.94 h -30.35 c 1.72,-23.2 14.39,-42 49.44,-41.76 30.88,0.22 47.69,13.89 47.69,45 z m -31.07,-25.71 h -13 c -19.23,0 -26.36,6.65 -26.36,19.24 0,9.46 5.12,17.42 16.59,17.42 20.28,0 22.78,-16 22.78,-33.23 z"
     id="path18" />
  <path
     d="m 1023.4822,64.88 c 0,-11.1 0,-23.25 -0.22,-32.9 h 30.91 c 0.64,3.37 1.06,12.44 1.23,16.64 3.92,-8.21 13.24,-19.67 33.44,-19.67 23.15,0 38.2,17.72 38.2,50.54 v 83.08 h -31.92 V 83.51 c 0,-14.68 -4.32,-25.32 -18.4,-25.32 -13.56,0 -21.32,8.55 -21.32,31.6 v 72.78 h -31.92 z"
     id="path20" />
  <path
     d="m 1155.5522,64.88 c 0,-11.1 0,-23.25 -0.23,-32.9 h 30.91 c 0.65,3.37 1.06,12.44 1.23,16.64 3.92,-8.21 13.25,-19.67 33.45,-19.67 23.15,0 38.2,17.72 38.2,50.54 v 83.08 h -31.92 V 83.51 c 0,-14.68 -4.32,-25.32 -18.4,-25.32 -13.57,0 -21.33,8.55 -21.33,31.6 v 72.78 h -31.91 z"
     id="path22" />
  <path
     class="cls-1"
     d="m 64.602193,94.18 c -19.52,4.41 -39.68,0 -39.68,0 a 81.73,81.73 0 0 1 -1.91,-15.28 c 0.11,6 0.47,11.42 1,16.43 q 1.49,0.33 3,0.63 a 113.83,113.83 0 0 0 22,2.26 90.47,90.47 0 0 0 15.81,-1.37 c 0.86,-6.67 1.28,-13.12 1.44,-18.84 a 131.44,131.44 0 0 1 -1.66,16.17 z m 1.73,-29.88 c -0.14,-3.92 -0.48,-7.78 -1,-11.56 a 90.41,90.41 0 0 0 -16.26,-1.44 113.79,113.79 0 0 0 -22,2.25 c -1.07,0.21 -2.11,0.44 -3.16,0.66 -0.1,0.92 -0.19,1.8 -0.26,2.63 -0.44,6.39 -0.64,12.37 -0.64,17.93 a 101.39,101.39 0 0 1 2,-19.32 c 16.06,-4.41 39.68,0 39.68,0 a 73.43,73.43 0 0 1 1.81,16.38 c -0.08,-2.83 -0.12,-5.34 -0.17,-7.53 z"
     id="path24" />
  <path
     class="cls-1"
     d="m -17.927807,74.76 q 10.4699996,11.61 31.56,17.91 a 234.82,234.82 0 0 1 -0.12,-35.78 q -21.0100004,6.32 -31.44,17.87 z"
     id="path26" />
  <path
     class="cls-1"
     d="m 36.792193,13.58 a 88.54,88.54 0 0 0 -10.58,29.86 l -0.64,0.12 c 2.13,-10.56 5.84,-22.56 11.22,-29.98 z"
     id="path28" />
  <path
     class="cls-1"
     d="m 69.842193,-4.16 a 72.34,72.34 0 0 0 -12.31,1.62 48.48,48.48 0 0 1 12.31,-1.62 z"
     id="path30" />
  <path
     d="m 44.152193,64.67 a 10.09,10.09 0 1 0 10.08,10.08 10.08,10.08 0 0 0 -10.08,-10.08 z m 0,0 a 10.09,10.09 0 1 0 10.08,10.08 10.08,10.08 0 0 0 -10.08,-10.08 z m 0,0 a 10.09,10.09 0 1 0 10.08,10.08 10.08,10.08 0 0 0 -10.08,-10.08 z m 0,0 a 10.09,10.09 0 1 0 10.08,10.08 10.08,10.08 0 0 0 -10.08,-10.08 z m 0,0 a 10.09,10.09 0 1 0 10.08,10.08 10.08,10.08 0 0 0 -10.08,-10.08 z m 0,0 a 10.09,10.09 0 1 0 10.08,10.08 10.08,10.08 0 0 0 -10.08,-10.08 z m 0,0 a 10.09,10.09 0 1 0 10.08,10.08 10.08,10.08 0 0 0 -10.08,-10.08 z m 0,0 a 10.09,10.09 0 1 0 10.08,10.08 10.08,10.08 0 0 0 -10.08,-10.08 z m 82.179997,31.56 a 53.87,53.87 0 0 0 -7.33,-21.48 53.78,53.78 0 0 0 7.33,-21.47 c 0,-0.29 0.07,-0.57 0.1,-0.86 A 61.64,61.64 0 0 0 98.552193,-5.84 c -17.06,-10.84 -34,-9.12 -44.47,-6.22 a 48.35,48.35 0 0 1 -22.94,0.41 c -34.5700004,-7.3 -52.83,12.71 -61.54,28.2 a 60.62,60.62 0 0 0 -7.79,35.17 50.76,50.76 0 0 0 7.74,23 50.8,50.8 0 0 0 -7.74,23 60.59,60.59 0 0 0 7.79,35.16 c 8.7,15.5 26.9999996,35.52 61.54,28.21 a 48.48,48.48 0 0 1 22.94,0.42 c 10.46,2.89 27.41,4.62 44.47,-6.22 A 61.63,61.63 0 0 0 126.43219,97.03 c -0.05,-0.22 -0.1,-0.51 -0.1,-0.8 z M 44.712193,2.76 c 15.71,12.24 19.85,40.8 19.85,40.8 a 93.38,93.38 0 0 0 -38.35,0 c 0,0 0,-0.08 0,-0.12 a 88.54,88.54 0 0 1 10.58,-29.86 v 0 a 54.48,54.48 0 0 1 7.9,-10.82 z m 19.91,91.42 c -19.52,4.41 -39.68,0 -39.68,0 a 81.73,81.73 0 0 1 -1.91,-15.28 c 0,-0.14 0,-0.28 0,-0.42 0,-0.34 0,-0.69 0,-1 0,-0.77 0,-1.53 0,-2.27 V 74.8 a 101.39,101.39 0 0 1 2,-19.32 c 16.06,-4.41 39.68,0 39.68,0 a 73.43,73.43 0 0 1 1.81,16.38 3.69,3.69 0 0 1 0,0.47 V 73 c 0,0.45 0,0.9 0,1.34 0,0.73 0,1.45 0,2.15 0,0.2 0,0.4 0,0.6 v 0.89 a 131.44,131.44 0 0 1 -1.92,16.2 z m -92,-59.27 c 1.06,-3.83 11.49,-38 44.36,-38 h 1.62 0.09 c 0.4,0 0.8,0 1.2,0.06 0.4,0.06 1,0.06 1.48,0.1 v 0 c 2.53,0.19 5.14,0.51 7.79,0.85 a 78.14,78.14 0 0 1 8,1.47 c -13.83,8.61 -19.83,32.74 -22.23,46.61 -18.3400004,4.93 -30.6,12.2 -38.68,20.39 q -6.79,-13.11 -3.62,-31.48 z m 41,57.75 c -14.07000044,-4.22 -24.57,-10.16 -31.55,-17.91 q 10.4399996,-11.58 31.43,-17.87 a 237.41,237.41 0 0 0 0.12,35.78 z m 15.42,58.63 a 58.12,58.12 0 0 1 -12,1.34 c -32.87,0 -43.3,-34.21 -44.36,-38 q -3.15,-18.4 3.62,-31.49 c 8.08,8.18 20.3399996,15.45 38.66,20.38 3.85,25.19 12.47,39.26 19.66,46.89 -1.89,0.2 -3.74,0.49 -5.58,0.88 z m 16,-5 c -5.58,-4.72 -14.93,-16 -19.45,-40.39 a 114.38,114.38 0 0 0 37.59,1.4 c -2.96,14.7 -8.38,29.21 -18.16,39.03 z m 48.1,0.52 a 42.86,42.86 0 0 1 -23.28,6.82 49.88,49.88 0 0 1 -13.09,-1.81 c -0.83,-0.24 -1.69,-0.42 -2.54,-0.62 11,-12.25 16.74,-29.27 19.64,-46 a 87.63,87.63 0 0 0 31.739997,-15.42 54.79,54.79 0 0 0 6.73,-6.17 43.49,43.49 0 0 1 4,13.72 l 0.09,0.75 A 51.69,51.69 0 0 1 93.122193,146.85 Z M 76.382193,64 c -0.1,-2.88 -0.3,-5.76 -0.59,-8.62 a 77.19,77.19 0 0 1 23.65,12.32 43,43 0 0 1 7.249997,7.08 43.51,43.51 0 0 1 -7.249997,7.1 77.66,77.66 0 0 1 -24.11,12.41 220.49,220.49 0 0 0 1.05,-30.29 z m 39.999997,-12.61 -0.09,0.78 a 43.45,43.45 0 0 1 -4,13.7 54,54 0 0 0 -6.73,-6.17 87.45,87.45 0 0 0 -31.409997,-15.32 114.23,114.23 0 0 0 -4.82,-17.5 c -5.94,-16.26 -12.95,-24.62 -16.74,-28.25 a 42.14,42.14 0 0 1 4.68,-1.09 h 0.09 0.14 a 72.34,72.34 0 0 1 12.31,-1.62 c 8.31,-0.42 16.15,2.29 23.28,6.82 A 51.68,51.68 0 0 1 116.38219,51.36 Z M 44.152193,64.7 a 10.09,10.09 0 1 0 10.08,10.08 10.08,10.08 0 0 0 -10.08,-10.11 z m 0,0 a 10.09,10.09 0 1 0 10.08,10.08 10.08,10.08 0 0 0 -10.08,-10.11 z m 0,0 a 10.09,10.09 0 1 0 10.08,10.08 10.08,10.08 0 0 0 -10.08,-10.11 z m 0,0 a 10.09,10.09 0 1 0 10.08,10.08 10.08,10.08 0 0 0 -10.08,-10.11 z m 0,0 a 10.09,10.09 0 1 0 10.08,10.08 10.08,10.08 0 0 0 -10.08,-10.11 z m 0,0 a 10.09,10.09 0 1 0 10.08,10.08 10.08,10.08 0 0 0 -10.08,-10.11 z m 0,0 a 10.09,10.09 0 1 0 10.08,10.08 10.08,10.08 0 0 0 -10.08,-10.11 z"
     id="path32" />
  <path
     d="m 54.232193,74.75 a 10.08,10.08 0 1 1 -10.08,-10.08 10.08,10.08 0 0 1 10.08,10.08 z"
     id="path34" />
  <path
     class="cls-2"
     d="m 54.232193,74.75 a 10.08,10.08 0 1 1 -10.08,-10.08 10.08,10.08 0 0 1 10.08,10.08 z"
     id="path36" />
  <path
     d="m 54.232193,74.75 a 10.08,10.08 0 1 1 -10.08,-10.08 10.08,10.08 0 0 1 10.08,10.08 z"
     id="path38" />
</svg>
