<?xml version="1.0" encoding="UTF-8" standalone="no"?>
<!-- Generator: Adobe Illustrator 25.0.0, SVG Export Plug-In . SVG Version: 6.00 Build 0)  -->

<svg
   version="1.1"
   id="Layer_1"
   x="0px"
   y="0px"
   viewBox="-63.196 -29.48 1289.392 409.760021"
   xml:space="preserve"
   sodipodi:docname="tea-logo-primary.svg"
   width="1239.8"
   height="394"
   xmlns:inkscape="http://www.inkscape.org/namespaces/inkscape"
   xmlns:sodipodi="http://sodipodi.sourceforge.net/DTD/sodipodi-0.dtd"
   xmlns="http://www.w3.org/2000/svg"
   xmlns:svg="http://www.w3.org/2000/svg"><defs
   id="defs25" /><sodipodi:namedview
   id="namedview23"
   pagecolor="#ffffff"
   bordercolor="#666666"
   borderopacity="1.0"
   inkscape:pageshadow="2"
   inkscape:pageopacity="0.0"
   inkscape:pagecheckerboard="0"
   showgrid="false" />
<g
   id="g20"
   transform="translate(-378.5,-364.7)"
   fill="#a85a3a">
	<g
   id="g8">
		<path
   d="M 919.8,431.3 H 813 v -64.5 h 289.1 v 64.5 H 995.8 v 299.4 h -76 z"
   id="path2" />
		<path
   d="m 1135.6,610.3 c 0.1,34.2 16.6,67.6 52.9,67.6 30.4,0 39.1,-12.6 46,-29.2 h 73.1 c -9.4,33.4 -38.2,88.4 -121,88.4 -86.9,0 -124.6,-67.3 -124.6,-138.9 0,-85.7 42.5,-146.9 127.2,-146.9 90.6,0 121.4,67.9 121.4,136.1 0,9.2 0,15.2 -1,23 h -174 z m 101.9,-46.5 c -0.5,-31.8 -12.8,-58.6 -48.4,-58.6 -35,0 -49.1,25 -52,58.6 z"
   id="path4" />
		<path
   d="m 1561.7,660.1 c -0.4,63.7 4,54.4 18.2,70.6 h -84.4 c -2,-5.4 -3.6,-19.8 -3.7,-26.7 -9.6,15.3 -27.5,33 -74.1,33 -63.6,0 -90.4,-43.3 -90.4,-85.7 0,-62.2 48.2,-90.9 125.6,-90.9 12.9,0 28.8,0 37.6,0 v -16.7 c 0,-19.4 -6.7,-38.5 -40.6,-38.5 -30.8,0 -37.6,13.6 -40.9,33.3 h -69.4 c 4,-48.5 32.9,-87.8 113.1,-87.4 70.6,0.5 109.1,29 109.1,94.1 v 114.9 z m -71.2,-53.8 c -6.1,0 -20.1,0 -29.8,0 -44,0 -60.3,13.9 -60.3,40.3 0,19.8 11.7,36.4 38,36.4 46.4,0 52.1,-33.4 52.1,-69.5 z"
   id="path6" />
	</g>
	<path
   d="M 539.9,543.6 H 721.3 V 522.9 H 541.2 c 0,0 0,0 0,-31.3 0,-31.3 13.2,-37.6 19.9,-41.2 6.7,-3.5 14.7,-7.4 29.2,-25.3 9.9,-12.2 10.2,-33.3 9.4,-45.4 -0.4,-5.3 -4.7,-9.3 -10,-9.3 v 0 c -5.5,0 -10,4.5 -10,10 v 14 c 0,35.2 -36.9,43.6 -36.9,43.6 v -83.4 c 0,-6.4 -5.2,-11.5 -11.5,-11.5 v 0 H 530 v 0 c -6.4,0 -11.5,5.2 -11.5,11.5 V 438 c 0,0 -36.9,-8.4 -36.9,-43.6 v -14 c 0,-5.5 -4.5,-10 -10,-10 v 0 c -5.3,0 -9.6,4.1 -10,9.3 -0.8,12.1 -0.6,33.2 9.4,45.4 14.5,17.9 22.5,21.8 29.2,25.3 6.7,3.5 19.9,9.9 19.9,41.2 0,31.3 0,31.3 0,31.3 h -180 v 20.7 H 521.5 V 587 c 0,4.4 -0.9,8.8 -2.9,12.8 -3.3,6.7 -10.2,15.6 -24.7,21.5 -31.8,12.9 -32.4,64.4 -32.4,69.7 v 0 c 0,2.9 2.3,5.2 5.2,5.2 h 7.6 c 2.9,0 5.2,-2.3 5.2,-5.2 0,-13.8 3.5,-50.9 40.6,-58.7 v 82.9 c 0,5.5 4.4,9.9 9.9,9.9 v 0 h 1.3 v 0 c 5.5,0 9.9,-4.4 9.9,-9.9 v -82.9 c 37.1,7.8 40.6,44.9 40.6,58.7 0,2.9 2.3,5.2 5.2,5.2 h 7.6 c 2.9,0 5.2,-2.3 5.2,-5.2 v 0 c 0,-5.2 -2.1,-58.3 -32.4,-69.7 -28.3,-10.6 -27.6,-30.5 -27.6,-30.5 v -47.2 z"
   id="path10" />
	<path
   d="m 559.7,497.9 c 0,0 13,-32.6 42.8,-32.6 22.5,0 64.3,0 83.4,0 5.6,0 10,4.5 10,10.1 v 0 c 0,5.6 -4.5,10.1 -10.1,10.1 h -73 c -10.1,0 -20,3.4 -27.5,10 -4.2,3.7 -7.7,8.3 -8.6,13.8 z"
   id="path12" />
	<path
   d="m 500.6,497.9 c 0,0 -8.6,-32.6 -40.8,-32.6 -22.5,0 -64.3,0 -83.4,0 -5.6,0 -10,4.5 -10,10.1 v 0 c 0,5.6 4.5,10.1 10.1,10.1 h 73 c 10.1,0 20,3.4 27.5,10 4.2,3.7 7.7,8.3 8.6,13.8 z"
   id="path14" />
	<path
   d="m 561.2,568.9 c 0,0 10.2,33.5 40.9,33.5 22.5,0 64.3,0 83.4,0 5.6,0 10,-4.5 10,-10.1 v 0 c 0,-5.6 -4.5,-10.1 -10.1,-10.1 h -73 c -10.1,0 -20,-3.4 -27.5,-10 -4.2,-3.7 -7.7,-8.3 -8.6,-13.8 z"
   id="path16" />
	<path
   d="m 500.6,569.3 c 0,0 -11,33.2 -41.3,33.2 -22.5,0 -64.3,0 -83.4,0 -5.6,0 -10,-4.5 -10,-10.1 v 0 c 0,-5.6 4.5,-10.1 10.1,-10.1 h 73 c 10.1,0 20,-3.4 27.5,-10 4.2,-3.7 7.7,-8.3 8.6,-13.8 z"
   id="path18" />
</g>
</svg>
