<?xml version="1.0" encoding="UTF-8" standalone="no"?>
<svg
   id="Layer_1"
   version="1.1"
   viewBox="-61.774398 -24.486 1215.468696 150.07201"
   sodipodi:docname="landslide-logo-primary.svg"
   width="1168.72"
   height="144.3"
   xmlns:inkscape="http://www.inkscape.org/namespaces/inkscape"
   xmlns:sodipodi="http://sodipodi.sourceforge.net/DTD/sodipodi-0.dtd"
   xmlns="http://www.w3.org/2000/svg"
   xmlns:svg="http://www.w3.org/2000/svg">
  <defs
     id="defs33" />
  <sodipodi:namedview
     id="namedview31"
     pagecolor="#ffffff"
     bordercolor="#666666"
     borderopacity="1.0"
     inkscape:pageshadow="2"
     inkscape:pageopacity="0.0"
     inkscape:pagecheckerboard="0"
     showgrid="false" />
  <!-- Generator: Adobe Illustrator 29.7.1, SVG Export Plug-In . SVG Version: 2.1.1 Build 8)  -->
  <g
     id="g22"
     transform="translate(-414.04,-489.45)">
    <polygon
       points="730.71,609.91 807.76,609.91 807.76,590.16 753.11,590.16 753.11,476.14 730.71,476.14 "
       id="polygon2" />
    <path
       d="m 907.34,589.14 h -0.19 c -0.88,0 -1.51,0 -1.51,-2.45 v -44.64 c 0,-13.25 -4.17,-23.49 -12.39,-30.44 -8.08,-6.82 -18.86,-10.28 -32.04,-10.28 -16.71,0 -30.43,7.69 -40.76,22.87 l -1.63,2.4 9.78,6.9 c 1.29,1.11 2.96,1.67 4.97,1.67 0.29,0 0.59,-0.01 0.89,-0.04 2.33,-0.18 4.21,-0.96 5.59,-2.35 0.13,-0.13 0.76,-0.79 1.91,-2.01 1.09,-1.15 1.94,-2.03 2.55,-2.64 0.34,-0.34 1.1,-1 2.78,-2.19 1.32,-0.93 2.62,-1.68 3.84,-2.21 1.26,-0.55 2.88,-1.05 4.8,-1.51 1.88,-0.44 3.85,-0.67 5.84,-0.67 7.19,0 12.75,1.59 16.53,4.72 3.66,3.04 5.44,6.37 5.44,10.2 v 1.08 c -0.03,0.53 -1.07,5.21 -25.42,7.51 -13.41,1.29 -23.97,4.87 -31.38,10.65 -7.73,6.02 -11.65,14.19 -11.65,24.28 0,10.09 3.21,17.77 9.54,23.41 6.23,5.56 14.84,8.38 25.59,8.38 15.55,0 27.58,-4.71 35.79,-14.02 1.36,2.79 3.3,5.21 5.79,7.23 4.05,3.27 9.21,4.93 15.34,4.93 h 6.11 v -14.48 c 0,-3.88 -2.34,-6.3 -6.11,-6.3 z m -55.06,2.23 c -4.77,0 -8.57,-1.07 -11.31,-3.2 -2.58,-2 -3.78,-4.59 -3.78,-8.18 0,-4.61 1.55,-7.75 4.88,-9.89 3.74,-2.4 10.35,-4.1 19.64,-5.04 9.77,-1.02 17.02,-3.03 22.02,-6.12 -0.25,10.9 -2.8,19.06 -7.57,24.25 -4.97,5.41 -13,8.16 -23.87,8.16 z"
       id="path4" />
    <path
       d="m 975.25,501.71 c -10.52,0 -19.33,3.55 -26.26,10.55 v -2.02 c 0,-1.77 -0.68,-3.39 -1.98,-4.69 -1.29,-1.29 -2.92,-1.98 -4.69,-1.98 h -14.48 v 106.35 h 21.9 v -62.29 c 0,-17.4 8.11,-25.51 25.51,-25.51 7.74,0 12.97,1.86 15.53,5.53 2.8,4 4.21,10.72 4.21,19.98 v 62.29 h 21.9 v -62.29 c 0,-14.92 -3.37,-26.39 -10.02,-34.11 -6.76,-7.84 -17.4,-11.81 -31.62,-11.81 z"
       id="path6" />
    <path
       d="m 1106.81,511.94 c -8.25,-6.79 -18,-10.23 -29.05,-10.23 -15.46,0 -27.67,5.07 -36.28,15.07 -8.5,9.87 -12.81,23.5 -12.81,40.52 0,17.02 4.52,29.91 13.42,39.66 8.97,9.83 21.28,14.82 36.59,14.82 10.95,0 20.65,-3.98 28.86,-11.85 v 3.32 c 0,1.77 0.69,3.4 1.98,4.69 1.29,1.3 2.92,1.98 4.69,1.98 h 14.48 V 470.09 h -21.9 v 41.85 z m -28.12,79.43 c -8.95,0 -15.68,-2.93 -20.59,-8.96 -4.99,-6.13 -7.52,-14.76 -7.52,-25.67 0,-10.91 2.42,-19.73 7.18,-25.8 4.66,-5.94 11.21,-8.82 20,-8.82 8.79,0 16.17,2.81 21.27,8.35 5.16,5.61 7.78,14.02 7.78,24.98 v 1.3 c 0,11.5 -2.49,20.28 -7.4,26.09 -4.78,5.66 -11.75,8.53 -20.72,8.53 z"
       id="path8" />
    <path
       d="m 1186.65,544.37 c -1.75,-0.37 -4.37,-0.9 -7.86,-1.59 -3.45,-0.68 -6.04,-1.2 -7.8,-1.58 -3.09,-0.62 -5.48,-1.8 -7.08,-3.5 -1.55,-1.64 -2.27,-3.45 -2.27,-5.7 0,-3.01 1.25,-5.29 3.94,-7.16 2.95,-2.06 7.14,-3.1 12.45,-3.1 7.95,0 14.57,2.59 19.68,7.69 1.41,1.41 2.99,2.12 4.7,2.12 1.52,0 3.02,-0.58 4.46,-1.74 l 11.3,-9.22 -1.68,-2.26 c -3.1,-4.17 -7.92,-8.08 -14.34,-11.61 -6.49,-3.58 -14.29,-5.39 -23.19,-5.39 -11.67,0 -21.11,2.81 -28.07,8.36 -7.15,5.71 -10.78,13.46 -10.78,23.05 0,7.36 2.74,13.8 8.13,19.12 5.25,5.18 12.4,8.61 21.26,10.19 l 14.34,2.61 c 5.11,0.89 9.11,2.64 11.9,5.21 2.62,2.42 3.89,5.18 3.89,8.44 0,3.92 -1.5,6.82 -4.73,9.14 -3.44,2.47 -8.61,3.72 -15.39,3.72 -4.03,0 -8.14,-0.92 -12.2,-2.72 -4.15,-1.84 -7.59,-3.99 -10.25,-6.43 -1.45,-1.24 -2.99,-1.87 -4.59,-1.87 -1.6,0 -2.96,0.58 -4.35,1.75 l -11.11,10.18 2,2.17 c 10.82,11.74 24.45,17.69 40.49,17.69 12.91,0 23.2,-3 30.58,-8.93 7.59,-6.08 11.43,-14.39 11.43,-24.72 0,-8.23 -3.21,-15.54 -9.54,-21.73 -6.16,-6.02 -14.7,-10.14 -25.35,-12.21 z"
       id="path10" />
    <path
       d="m 1271.25,589.51 h -10.79 c -1.7,0 -2.93,-0.43 -3.87,-1.37 -0.93,-0.93 -1.37,-2.16 -1.37,-3.87 V 470.08 h -21.9 v 114.19 c 0,7.75 2.53,14.1 7.51,18.87 4.95,4.74 11.55,7.15 19.62,7.15 h 17.46 v -14.11 c 0,-1.77 -0.68,-3.4 -1.98,-4.69 -1.3,-1.29 -2.92,-1.98 -4.69,-1.98 z"
       id="path12" />
    <rect
       x="1290.64"
       y="503.57001"
       width="21.9"
       height="106.35"
       id="rect14" />
    <path
       d="m 1301.58,467.85 c -3.77,0 -6.95,1.26 -9.43,3.75 -2.49,2.49 -3.75,5.66 -3.75,9.43 0,3.77 1.26,6.95 3.74,9.43 2.48,2.49 5.66,3.75 9.44,3.75 3.78,0 6.95,-1.26 9.43,-3.75 2.49,-2.49 3.75,-5.66 3.75,-9.43 0,-3.77 -1.26,-6.94 -3.75,-9.43 -2.49,-2.49 -5.66,-3.75 -9.43,-3.75 z"
       id="path16" />
    <path
       d="m 1404.88,511.94 c -8.25,-6.79 -18,-10.23 -29.05,-10.23 -15.46,0 -27.67,5.07 -36.28,15.07 -8.5,9.87 -12.81,23.5 -12.81,40.52 0,17.02 4.52,29.9 13.42,39.66 8.97,9.83 21.29,14.82 36.59,14.82 10.95,0 20.65,-3.98 28.86,-11.85 v 3.32 c 0,1.77 0.69,3.4 1.98,4.69 1.29,1.3 2.92,1.98 4.69,1.98 h 14.48 V 470.09 h -21.89 v 41.85 z m -28.12,79.43 c -8.95,0 -15.68,-2.93 -20.59,-8.96 -4.99,-6.12 -7.52,-14.76 -7.52,-25.67 0,-10.91 2.42,-19.73 7.18,-25.8 4.66,-5.94 11.21,-8.82 20,-8.82 8.79,0 16.17,2.81 21.27,8.35 5.16,5.61 7.78,14.02 7.78,24.98 v 1.3 c 0,11.5 -2.49,20.28 -7.4,26.09 -4.78,5.66 -11.75,8.53 -20.72,8.53 z"
       id="path18" />
    <path
       d="m 1530.38,516.81 c -9.35,-10.27 -22.1,-15.47 -37.9,-15.47 -15.8,0 -28.89,5.18 -38.17,15.38 -9.21,10.12 -13.88,23.72 -13.88,40.4 0,16.68 4.68,29.85 13.89,39.85 9.28,10.07 22.12,15.18 38.16,15.18 11.73,0 22,-3.03 30.52,-9 8.56,-5.99 14.69,-14.47 18.22,-25.21 l 0.99,-3.01 -15.51,-3.87 c -0.72,-0.24 -1.43,-0.36 -2.12,-0.36 -1.45,0 -4.1,0.55 -5.58,4.16 -5.1,11.11 -13.78,16.51 -26.52,16.51 -8.57,0 -15.53,-2.65 -20.69,-7.87 -4.61,-4.66 -7.59,-10.85 -8.86,-18.41 h 74.76 c 1.78,0 3.4,-0.69 4.69,-1.98 1.3,-1.3 1.98,-2.92 1.98,-4.69 v -1.3 c 0,-16.56 -4.7,-30.12 -13.98,-40.31 z m -9.6,27.49 h -56.84 c 1.65,-6.37 4.68,-11.54 9.01,-15.4 5.06,-4.5 11.63,-6.79 19.52,-6.79 7.89,0 14.09,2.28 19.15,6.79 4.34,3.86 7.42,9.04 9.15,15.4 z"
       id="path20" />
  </g>
  <g
     id="g28"
     transform="translate(-414.04,-489.45)">
    <path
       d="m 609.62,521.44 -17.46,13.46 c -38.86,-12.44 -65.2,-54.79 -65.2,-54.79 v 0 c 0,0 -26.34,42.35 -65.2,54.79 L 444.3,521.44 418.69,558.7 c 0,0 72.77,18.05 108.27,-39 v 0 c 35.51,57.05 106.6,38.02 106.6,38.02 z"
       id="path24" />
    <path
       d="m 652.73,576.46 c -68.11,25.61 -126.61,-27.94 -126.61,-27.94 0,0 -58.5,53.56 -126.61,27.94 l -23.87,23.28 c 0,0 69.85,35.51 150.48,-17.46 80.62,52.97 150.48,17.46 150.48,17.46 z"
       id="path26" />
  </g>
</svg>
