<?xml version="1.0" encoding="UTF-8" standalone="no"?>
<svg
   id="Layer_1"
   data-name="Layer 1"
   viewBox="-58.432378 -26.501757 1041.683656 254.891354"
   version="1.1"
   sodipodi:docname="kitch-logo-primary.svg"
   width="1001.6189"
   height="245.08783"
   xmlns:inkscape="http://www.inkscape.org/namespaces/inkscape"
   xmlns:sodipodi="http://sodipodi.sourceforge.net/DTD/sodipodi-0.dtd"
   xmlns="http://www.w3.org/2000/svg"
   xmlns:svg="http://www.w3.org/2000/svg">
  <sodipodi:namedview
     id="namedview37"
     pagecolor="#ffffff"
     bordercolor="#666666"
     borderopacity="1.0"
     inkscape:pageshadow="2"
     inkscape:pageopacity="0.0"
     inkscape:pagecheckerboard="0"
     showgrid="false" />
  <defs
     id="defs4">
    <style
       id="style2">.cls-1{fill:#9389ff;}</style>
  </defs>
  <path
     d="m 427.34888,169.67888 c 8.73,13.35 17.73,21.85 30.27,24 v 16.33 h -79.9 v -16.36 c 14.18,-1.52 17.73,-8.49 10.63,-19.11 l -42.27,-63.41 -28.36,29.12 v 32.47 c 0,13.95 5.73,19.11 22.09,20.93 v 16.36 h -79.91 v -16.36 c 16.63,-1.82 22.91,-7 22.91,-20.93 V 39.518882 c 0,-13.95 -6.28,-19.11 -22.91,-20.93 V 2.1988824 h 79.9 V 18.588882 c -16.36,1.82 -22.09,7 -22.09,20.93 v 73.729998 l 69.27,-71.909998 c 10.91,-11.83 7.36,-20.93 -7.63,-22.75 V 2.1988824 h 69.81 V 18.588882 c -15,3.64 -26.18,13 -37.36,24.57 l -41.73,43.09 z"
     id="path6" />
  <path
     d="m 453.80888,210.00888 v -16.36 c 17.18,-2.43 19.09,-6.37 19.09,-18.81 V 99.598882 c 0,-11.23 -2.46,-16.08 -19.09,-17 v -15.77 l 50.17,-9.71 1.91,2.12 V 174.83888 c 0,12.44 1.91,16.38 19.09,18.81 v 16.36 z m 13.09,-196.279998 c 0,-12.4399996 8.45,-19.7199996 20.18,-19.7199996 11.18,0 19.36,7.28 19.36,19.7199996 0,12.75 -7.64,20 -18.82,20 -11.72,0.03 -20.72,-7.56 -20.72,-20 z"
     id="path8" />
  <path
     d="m 642.78888,184.54888 c -8.73,15.78 -25.63,28.52 -46.9,28.52 -25.37,0 -39.55,-17 -39.55,-47 V 81.088882 h -22.09 v -18.81 c 25.91,-0.31 34.09,-15.48 35.18,-47.64 h 19.91 v 45.51 h 44.45 v 20.94 h -44.45 v 75.239998 c 0,20.94 5.45,30.34 18.27,30.34 10.36,0 18.55,-6.06 24.27,-13 z"
     id="path10" />
  <path
     d="m 652.33888,138.12888 c 0,-48.549998 30.27,-80.999998 72.26,-80.999998 30,0 52.09,17.6 52.09,35.8 0,10.919998 -7.91,18.209998 -16.64,18.209998 -18.81,0 -12.81,-34.589998 -39.54,-34.589998 -21,0 -34.09,19.42 -34.09,51.579998 0,35.19 15,61 42,61 15.82,0 29.73,-8.49 37.36,-30.34 l 16.36,6.07 c -9.81,35.19 -33.81,48.54 -61.9,48.54 -43.34,-0.03 -67.9,-31.28 -67.9,-75.27 z"
     id="path12" />
  <path
     d="m 944.12888,174.83888 c 0,12.44 1.91,16.38 19.09,18.81 v 16.36 h -70.32 v -16.36 c 16.36,-2.43 18.27,-6.07 18.27,-18.81 v -54.61 c 0,-27.919998 -9.81,-39.139998 -27.54,-39.139998 -18,0 -34.63,17 -34.63,29.999998 v 63.71 c 0,12.74 1.91,16.38 18,18.81 v 16.4 h -70.1 v -16.36 c 17.18,-2.43 19.09,-6.37 19.09,-18.81 V 28.008882 c 0,-11.22 -2.46,-16.38 -19.09,-17 V -5.0811176 l 50.18,-9.4000004 1.91,2.12 v 97.09 c 11.18,-15.47 28.36,-27.61 48.27,-27.61 29.72,0 46.9,18.81 46.9,57.949998 z"
     id="path14" />
  <path
     class="cls-1"
     d="M 115.59888,-3.1811176 V 56.008882 a 54.73,54.73 0 0 0 -65.559998,2 V -3.9911176 a 9.49,9.49 0 0 1 9.49,-9.4900004 h 45.769998 a 10.3,10.3 0 0 1 10.3,10.3000004 z"
     id="path16" />
  <circle
     class="cls-1"
     cx="-97.04496"
     cy="88.663239"
     r="44.09"
     transform="rotate(-87.4)"
     id="circle18" />
  <path
     class="cls-1"
     d="m 14.228882,58.768882 c 0.9,0 2.22,0.09 3.11,0 h 1.42 l 21.94,-0.17 0.44,-27.13 a 26.5,26.5 0 0 0 -53,0 c 0.03,14.37 11.46000044,27.3 26.09,27.3 z"
     id="path20" />
  <path
     class="cls-1"
     d="m 151.16888,58.768882 c -0.9,0 -2.22,0.09 -3.11,0 h -1.42 l -21.94,-0.17 -0.44,-27.13 a 26.5,26.5 0 0 1 53,0 c -0.03,14.37 -11.46,27.3 -26.09,27.3 z"
     id="path22" />
  <path
     class="cls-1"
     d="m 14.228882,145.06888 c 0.9,0 2.22,-0.09 3.11,0 h 1.42 l 21.94,0.17 0.44,27.13 a 26.5,26.5 0 0 1 -53,0 c 0.03,-14.36 11.46000044,-27.3 26.09,-27.3 z"
     id="path24" />
  <path
     class="cls-1"
     d="m 151.16888,145.06888 c -0.9,0 -2.22,-0.09 -3.11,0 h -1.42 l -21.94,0.17 -0.44,27.13 a 26.5,26.5 0 0 0 53,0 c -0.03,-14.36 -11.46,-27.3 -26.09,-27.3 z"
     id="path26" />
  <path
     class="cls-1"
     d="M 49.898882,60.108882 V -5.4211176 a 7.89,7.89 0 0 1 2.32,-5.6300004 c 4,-3.95 13.64,-10.83 31.54,-10.54 17.429998,0.28 27.359998,7 31.779998,11 a 9,9 0 0 1 2.81,6.6400004 V 60.108882 c 0,0 -32.359998,-27.24 -68.449998,0 z"
     id="path28" />
  <path
     class="cls-1"
     d="m 49.898882,141.77888 v 65.53 a 7.89,7.89 0 0 0 2.32,5.63 c 4,4 13.64,10.83 31.54,10.54 17.429998,-0.28 27.359998,-7 31.779998,-11 a 9,9 0 0 0 2.81,-6.64 v -64.06 c 0,0 -32.359998,27.23 -68.449998,0 z"
     id="path30" />
  <path
     class="cls-1"
     d="m 43.308882,135.16888 h -65.53 a 7.89,7.89 0 0 1 -5.63,-2.32 c -3.95,-4 -10.83,-13.64 -10.54,-31.54 0.28,-17.419998 7,-27.359998 11,-31.779998 a 9,9 0 0 1 6.64,-2.81 h 64.06 c 0,0 -27.24,32.38 0,68.449998 z"
     id="path32" />
  <path
     class="cls-1"
     d="m 124.97888,135.16888 h 65.53 a 7.93,7.93 0 0 0 5.64,-2.32 c 3.94,-4 10.82,-13.64 10.53,-31.54 -0.28,-17.419998 -7,-27.359998 -11,-31.779998 a 9,9 0 0 0 -6.64,-2.81 h -64.06 c 0,0 27.24,32.38 0,68.449998 z"
     id="path34" />
</svg>
