<?xml version="1.0" encoding="UTF-8" standalone="no"?>
<svg
   id="Layer_2"
   data-name="Layer 2"
   viewBox="-23.328401 -3.9516 606.538431 102.741601"
   version="1.1"
   sodipodi:docname="blacklab-logo-primary.svg"
   width="583.21002"
   height="98.790001"
   xmlns:inkscape="http://www.inkscape.org/namespaces/inkscape"
   xmlns:sodipodi="http://sodipodi.sourceforge.net/DTD/sodipodi-0.dtd"
   xmlns="http://www.w3.org/2000/svg"
   xmlns:svg="http://www.w3.org/2000/svg">
  <sodipodi:namedview
     id="namedview36"
     pagecolor="#ffffff"
     bordercolor="#666666"
     borderopacity="1.0"
     inkscape:pageshadow="2"
     inkscape:pageopacity="0.0"
     inkscape:pagecheckerboard="0"
     showgrid="false" />
  <defs
     id="defs4">
    <style
       id="style2">
      .cls-1 {
        fill: gold;
      }

      .cls-1, .cls-2, .cls-3 {
        stroke-width: 0px;
      }

      .cls-3 {
        fill: #333;
      }
    </style>
  </defs>
  <g
     id="Layer_1-2"
     data-name="Layer 1"
     transform="translate(-11.6642,-1.9758)">
    <g
       id="g32">
      <g
         id="g22">
        <path
           class="cls-3"
           d="M 142.09,91.99 V 8.84 h 36.81 c 6.83,0 12.23,1.95 16.2,5.84 3.97,3.89 5.96,9.1 5.96,15.61 0,4.13 -0.74,7.44 -2.2,9.95 -1.47,2.5 -3.3,4.35 -5.48,5.54 -2.19,1.19 -4.43,1.91 -6.73,2.14 v 0.72 c 1.75,0.08 3.61,0.5 5.6,1.25 1.98,0.75 3.87,1.89 5.66,3.4 1.79,1.51 3.26,3.47 4.41,5.9 1.15,2.42 1.73,5.38 1.73,8.88 0,4.45 -0.93,8.5 -2.8,12.15 -1.87,3.65 -4.41,6.53 -7.62,8.64 -3.22,2.11 -6.89,3.16 -11.02,3.16 h -40.5 z M 155.55,20.4 v 23.59 h 20.85 c 2.22,0 4.11,-0.38 5.66,-1.13 1.55,-0.75 2.74,-1.87 3.57,-3.34 0.83,-1.47 1.25,-3.28 1.25,-5.42 v -3.81 c 0,-2.07 -0.42,-3.83 -1.25,-5.3 -0.83,-1.47 -2.03,-2.6 -3.57,-3.4 -1.55,-0.79 -3.44,-1.19 -5.66,-1.19 z m 0,34.78 v 25.26 h 23.11 c 2.3,0 4.29,-0.42 5.96,-1.25 1.67,-0.83 2.96,-2.03 3.87,-3.57 0.91,-1.55 1.37,-3.47 1.37,-5.78 v -4.05 c 0,-2.22 -0.46,-4.13 -1.37,-5.72 -0.91,-1.59 -2.2,-2.8 -3.87,-3.63 -1.67,-0.83 -3.65,-1.25 -5.96,-1.25 h -23.11 z"
           id="path6" />
        <path
           class="cls-3"
           d="m 238.82,91.99 h -8.22 c -4.45,0 -7.78,-1.17 -10.01,-3.51 -2.22,-2.34 -3.34,-5.5 -3.34,-9.47 V 3.84 h 12.98 v 77.55 h 8.58 v 10.6 z"
           id="path8" />
        <path
           class="cls-3"
           d="m 301.48,91.99 h -7.27 c -2.38,0 -4.43,-0.54 -6.14,-1.61 -1.71,-1.07 -3,-2.6 -3.87,-4.59 -0.87,-1.98 -1.31,-4.33 -1.31,-7.03 v -1.07 l 3.69,3.93 h -4.17 c -1.19,3.81 -3.38,6.73 -6.55,8.76 -3.18,2.02 -7.03,3.04 -11.56,3.04 -6.35,0 -11.28,-1.67 -14.77,-5 -3.5,-3.34 -5.24,-7.82 -5.24,-13.46 0,-4.13 1.01,-7.56 3.04,-10.3 2.03,-2.74 4.98,-4.81 8.88,-6.2 3.89,-1.39 8.74,-2.08 14.53,-2.08 h 11.2 v -5.24 c 0,-3.73 -1.03,-6.65 -3.1,-8.76 -2.07,-2.1 -5.28,-3.16 -9.65,-3.16 -3.57,0 -6.53,0.82 -8.88,2.44 -2.34,1.63 -4.31,3.63 -5.9,6.02 l -7.74,-7.03 c 2.06,-3.49 4.98,-6.37 8.76,-8.64 3.77,-2.26 8.64,-3.4 14.59,-3.4 7.94,0 14.08,1.89 18.4,5.66 4.33,3.77 6.49,9.11 6.49,16.02 v 31.09 h 6.55 v 10.6 z M 281.94,64.71 h -10.96 c -4.53,0 -7.9,0.72 -10.13,2.14 -2.22,1.43 -3.34,3.5 -3.34,6.2 v 2.14 c 0,2.7 0.95,4.76 2.86,6.19 1.91,1.43 4.45,2.14 7.62,2.14 2.7,0 5.08,-0.4 7.15,-1.19 2.06,-0.79 3.71,-1.94 4.94,-3.46 1.23,-1.51 1.85,-3.26 1.85,-5.24 v -8.94 z"
           id="path10" />
        <path
           class="cls-3"
           d="m 335.79,93.42 c -8.98,0 -15.92,-2.92 -20.85,-8.75 -4.93,-5.84 -7.39,-13.72 -7.39,-23.65 0,-9.93 2.46,-17.81 7.39,-23.65 4.92,-5.84 11.87,-8.76 20.85,-8.76 6.19,0 11.28,1.39 15.25,4.17 3.97,2.78 6.83,6.47 8.58,11.08 l -10.72,5 c -0.88,-2.86 -2.42,-5.14 -4.65,-6.85 -2.22,-1.71 -5.04,-2.56 -8.46,-2.56 -4.77,0 -8.38,1.49 -10.84,4.47 -2.46,2.98 -3.69,6.85 -3.69,11.62 V 66.5 c 0,4.76 1.23,8.66 3.69,11.68 2.46,3.02 6.08,4.53 10.84,4.53 3.73,0 6.75,-0.93 9.05,-2.8 2.3,-1.86 4.13,-4.35 5.48,-7.44 l 9.77,5.24 c -1.99,5.08 -5.04,8.98 -9.17,11.67 -4.13,2.7 -9.17,4.05 -15.13,4.05 z"
           id="path12" />
        <path
           class="cls-3"
           d="M 370.09,91.99 V 3.84 h 12.98 v 54.2 h 0.6 l 8.7,-10.96 15.37,-17.03 h 14.89 l -21.92,24.18 24.3,37.76 H 409.4 l -17.63,-29.19 -8.7,9.05 v 20.13 h -12.98 z"
           id="path14" />
        <path
           class="cls-3"
           d="m 454.56,91.99 h -8.22 c -4.45,0 -7.78,-1.17 -10.01,-3.51 -2.22,-2.34 -3.34,-5.5 -3.34,-9.47 V 3.84 h 12.98 v 77.55 h 8.58 v 10.6 z"
           id="path16" />
        <path
           class="cls-3"
           d="m 517.22,91.99 h -7.27 c -2.38,0 -4.43,-0.54 -6.14,-1.61 -1.71,-1.07 -3,-2.6 -3.87,-4.59 -0.87,-1.98 -1.31,-4.33 -1.31,-7.03 v -1.07 l 3.69,3.93 h -4.17 c -1.19,3.81 -3.38,6.73 -6.55,8.76 -3.18,2.02 -7.03,3.04 -11.56,3.04 -6.35,0 -11.28,-1.67 -14.77,-5 -3.5,-3.34 -5.24,-7.82 -5.24,-13.46 0,-4.13 1.01,-7.56 3.04,-10.3 2.03,-2.74 4.98,-4.81 8.88,-6.2 3.89,-1.39 8.74,-2.08 14.53,-2.08 h 11.2 v -5.24 c 0,-3.73 -1.03,-6.65 -3.1,-8.76 -2.07,-2.1 -5.28,-3.16 -9.65,-3.16 -3.57,0 -6.53,0.82 -8.88,2.44 -2.34,1.63 -4.31,3.63 -5.9,6.02 l -7.74,-7.03 c 2.06,-3.49 4.98,-6.37 8.76,-8.64 3.77,-2.26 8.64,-3.4 14.59,-3.4 7.94,0 14.08,1.89 18.4,5.66 4.33,3.77 6.49,9.11 6.49,16.02 v 31.09 h 6.55 v 10.6 z M 497.68,64.71 h -10.96 c -4.53,0 -7.9,0.72 -10.13,2.14 -2.22,1.43 -3.34,3.5 -3.34,6.2 v 2.14 c 0,2.7 0.95,4.76 2.86,6.19 1.91,1.43 4.45,2.14 7.62,2.14 2.7,0 5.08,-0.4 7.15,-1.19 2.06,-0.79 3.71,-1.94 4.94,-3.46 1.23,-1.51 1.85,-3.26 1.85,-5.24 v -8.94 z"
           id="path18" />
        <path
           class="cls-3"
           d="M 527.58,91.99 V 3.84 h 12.98 v 36.45 h 0.6 c 1.27,-3.73 3.45,-6.61 6.55,-8.64 3.1,-2.03 6.71,-3.04 10.84,-3.04 5.24,0 9.69,1.29 13.34,3.87 3.65,2.58 6.45,6.27 8.4,11.08 1.94,4.81 2.92,10.62 2.92,17.45 0,6.83 -0.97,12.55 -2.92,17.39 -1.95,4.85 -4.75,8.56 -8.4,11.14 -3.65,2.58 -8.1,3.87 -13.34,3.87 -4.13,0 -7.7,-1.03 -10.72,-3.1 -3.02,-2.07 -5.24,-4.92 -6.67,-8.58 h -0.6 v 10.24 h -12.98 z m 27.04,-9.53 c 4.53,0 8.14,-1.49 10.84,-4.47 2.7,-2.98 4.05,-6.85 4.05,-11.62 V 55.65 c 0,-4.76 -1.35,-8.62 -4.05,-11.55 -2.7,-2.94 -6.31,-4.41 -10.84,-4.41 -2.62,0 -4.99,0.44 -7.09,1.31 -2.11,0.87 -3.79,2.1 -5.06,3.69 -1.27,1.59 -1.91,3.46 -1.91,5.6 v 20.97 c 0,2.38 0.63,4.39 1.91,6.02 1.27,1.63 2.96,2.9 5.06,3.81 2.1,0.91 4.47,1.37 7.09,1.37 z"
           id="path20" />
      </g>
      <polygon
         class="cls-1"
         points="49.09,27.24 76.03,0.09 98.1,22.34 71.16,49.49 "
         id="polygon24" />
      <polygon
         class="cls-1"
         points="0.18,76.55 27.03,49.49 49.09,71.72 22.25,98.79 "
         id="polygon26" />
      <polygon
         class="cls-2"
         points="49.09,71.72 71.16,49.49 97.9,76.46 75.85,98.7 "
         id="polygon28" />
      <polygon
         class="cls-2"
         points="0,22.25 22.07,0 49.09,27.24 27.03,49.49 "
         id="polygon30" />
    </g>
  </g>
</svg>
