<?xml version="1.0" encoding="UTF-8" standalone="no"?>
<!-- Generator: Adobe Illustrator 25.0.0, SVG Export Plug-In . SVG Version: 6.00 Build 0)  -->

<svg
   version="1.1"
   id="Layer_1"
   x="0px"
   y="0px"
   viewBox="-64.856 -26.944 1375.712 277.888021"
   xml:space="preserve"
   sodipodi:docname="nods-logo-primary.svg"
   width="1322.8"
   height="267.20001"
   xmlns:inkscape="http://www.inkscape.org/namespaces/inkscape"
   xmlns:sodipodi="http://sodipodi.sourceforge.net/DTD/sodipodi-0.dtd"
   xmlns="http://www.w3.org/2000/svg"
   xmlns:svg="http://www.w3.org/2000/svg"><defs
   id="defs19" /><sodipodi:namedview
   id="namedview17"
   pagecolor="#ffffff"
   bordercolor="#666666"
   borderopacity="1.0"
   inkscape:pageshadow="2"
   inkscape:pageopacity="0.0"
   inkscape:pagecheckerboard="0"
   showgrid="false" />
<g
   id="g14"
   transform="translate(-337,-428)">
	<path
   d="M 536.6,406.4 H 313 c -8,0 -14.4,6.5 -14.4,14.4 v 238.4 c 0,8 6.5,14.4 14.4,14.4 h 223.6 c 8,0 14.4,-6.5 14.4,-14.4 V 420.8 c 0,-8 -6.5,-14.4 -14.4,-14.4 z m -20,66.7 c 0,5.9 -4.8,10.8 -10.8,10.8 h -42.4 c -4.2,0 -8,1.7 -10.8,4.5 -2.8,2.8 -4.5,6.6 -4.5,10.8 0,8.4 6.8,15.3 15.3,15.3 h 42.4 c 5.9,0 10.8,4.8 10.8,10.8 v 24.3 c 0,5.9 -4.8,10.8 -10.8,10.8 h -41.5 c -8.3,0 -15,6.7 -15,15 v 3.9 c 0,8.3 6.7,15 15,15 h 41.5 c 5.9,0 10.8,4.8 10.8,10.8 v 21.5 c 0,5.9 -4.8,10.8 -10.8,10.8 H 346.3 c -5.9,0 -10.8,-4.8 -10.8,-10.8 v -20.1 c 0,-5.9 4.8,-10.8 10.8,-10.8 h 39.5 c 9.8,0 17.7,-7.9 17.7,-17.7 v -0.7 c 0,-9.8 -7.9,-17.7 -17.7,-17.7 h -39.5 c -5.9,0 -10.8,-4.8 -10.8,-10.8 v -22.2 c 0,-5.9 4.8,-10.8 10.8,-10.8 h 40.4 c 4.6,0 8.8,-1.9 11.8,-4.9 3,-3 4.9,-7.2 4.9,-11.8 0,-9.2 -7.5,-16.6 -16.6,-16.6 h -40.4 c -5.9,0 -10.8,-4.8 -10.8,-10.8 v -22.2 c 0,-5.9 4.8,-10.8 10.8,-10.8 h 159.5 c 5.9,0 10.8,4.8 10.8,10.8 v 23.6 z"
   id="path2" />
	<g
   id="g12">
		<path
   d="m 808.3,433.3 v 77.2 c 0,38.5 -0.1,78 2.5,104.5 h -0.6 C 798,589.4 734.1,486.8 701.7,433.3 h -58.4 v 235 H 686 v -79.2 c 0,-42.2 -0.4,-87.6 -2.2,-110.3 h 0.6 c 13.4,26.9 82.5,141.8 111.1,189.5 h 55.2 v -235 z"
   id="path4" />
		<path
   d="m 1018.6,430 c -76.1,0 -119.7,52.9 -119.7,120.9 0,67.3 40.6,120.9 116.5,120.9 79.4,0 119.6,-56.8 119.6,-121.9 0,-71.3 -45.1,-119.9 -116.4,-119.9 z m -1.4,205.5 c -47,0 -70.3,-38.1 -70.3,-85.6 0,-47.3 21.2,-83.6 69.7,-83.6 48.9,0 70.3,37.6 70.3,84.2 0,44.7 -18.8,85 -69.7,85 z"
   id="path6" />
		<path
   d="m 1277.8,433.3 h -94.7 v 235 h 92.8 c 74.3,0 120,-51.4 120,-120.3 0,-69.6 -47,-114.7 -118.1,-114.7 z m -4.2,199 h -44.1 V 469.4 h 44.3 c 52.5,0 74.1,37.9 74.1,79 0,48.3 -23.3,83.9 -74.3,83.9 z"
   id="path8" />
		<path
   d="m 1535.4,526.9 c -41.1,-9.2 -52.8,-16.6 -52.8,-34.9 0,-18.6 14.4,-28.7 39,-28.7 33.3,0 43.5,16.2 46.7,32.9 h 46.8 c -3.5,-33.2 -28.9,-66.3 -92.2,-66.3 -57.3,0 -87.8,28 -87.8,66.9 0,32.2 17.9,54 82,68.5 44.8,10.1 56.8,20 56.8,40.7 0,18.9 -13.2,31.8 -45.2,31.8 -31.1,0 -49.7,-12 -55.7,-37.2 h -46.8 c 5.6,40.5 36.5,70.9 99,70.9 63.6,0 96.2,-29.5 96.2,-70.7 0,-32.1 -14.6,-57.7 -86,-73.9 z"
   id="path10" />
	</g>
</g>
</svg>
